<svg width="1030" height="514" viewBox="0 0 1030 514" fill="none" xmlns="http://www.w3.org/2000/svg">
<path fill-rule="evenodd" clip-rule="evenodd" d="M91.2955 66.5487V0H91.9643V66.5487H158.179V0H158.847V66.5487H225.062V0H225.731V66.5487H291.945V0H292.614V66.5487H358.828V0H359.497V66.5487H425.711V0H426.38V66.5487H492.594V0H493.263V66.5487H559.477V0H560.146V66.5487H626.36V0H627.029V66.5487H693.244V0H693.912V66.5487H760.127V0H760.796V66.5487H827.01V0H827.679V66.5487H893.893V0H894.562V66.5487H960.776V0H961.445V66.5487H1030V67.2175H961.445V133.432H1030V134.101H961.445V200.315H1030V200.984H961.445V267.198H1030V267.867H961.445V334.081H1030V334.75H961.445V400.964H1030V401.633H961.445V467.847H1030V468.516H961.445V514.331H960.776V468.516H894.562V514.331H893.893V468.516H827.679V514.331H827.01V468.516H760.796V514.331H760.127V468.516H693.912V514.331H693.244V468.516H627.029V514.331H626.36V468.516H560.146V514.331H559.477V468.516H493.263V514.331H492.594V468.516H426.38V514.331H425.711V468.516H359.497V514.331H358.828V468.516H292.614V514.331H291.945V468.516H225.731V514.331H225.062V468.516H158.847V514.331H158.179V468.516H91.9643V514.331H91.2954V468.516H0V467.847H91.2954L91.2954 401.633H0V400.964H91.2954V334.75H0V334.081H91.2954L91.2955 267.867H0V267.198H91.2955V200.984H0V200.315H91.2955V134.101H0V133.432H91.2955V67.2175H0V66.5487H91.2955ZM91.9643 467.847H158.179L158.179 401.633H91.9643L91.9643 467.847ZM158.847 467.847H225.062L225.062 401.633H158.847L158.847 467.847ZM225.731 467.847H291.945L291.945 401.633H225.731L225.731 467.847ZM292.614 467.847H358.828L358.828 401.633H292.614L292.614 467.847ZM359.497 467.847H425.711L425.711 401.633H359.497L359.497 467.847ZM426.38 467.847H492.594L492.594 401.633H426.38L426.38 467.847ZM493.263 467.847H559.477V401.633H493.263L493.263 467.847ZM560.146 467.847H626.36V401.633H560.146V467.847ZM627.029 467.847H693.244V401.633H627.029V467.847ZM693.912 467.847H760.127V401.633H693.912V467.847ZM760.796 467.847H827.01V401.633H760.796V467.847ZM827.679 467.847H893.893V401.633H827.679V467.847ZM894.562 467.847H960.776V401.633H894.562V467.847ZM960.776 334.75V400.964H894.562V334.75H960.776ZM893.893 334.75V400.964H827.679V334.75H893.893ZM827.01 334.75V400.964H760.796V334.75H827.01ZM760.127 334.75V400.964H693.912V334.75H760.127ZM693.244 334.75V400.964H627.029V334.75H693.244ZM626.36 334.75V400.964H560.146V334.75H626.36ZM559.477 334.75V400.964H493.263V334.75H559.477ZM492.594 334.75V400.964H426.38V334.75H492.594ZM425.711 334.75V400.964H359.497V334.75H425.711ZM358.828 334.75V400.964H292.614V334.75H358.828ZM291.945 334.75V400.964H225.731V334.75H291.945ZM225.062 334.75V400.964H158.847V334.75H225.062ZM158.179 334.75V400.964H91.9643V334.75H158.179ZM91.9643 334.081H158.179L158.179 267.867H91.9643L91.9643 334.081ZM158.847 334.081H225.062L225.062 267.867H158.847V334.081ZM225.731 334.081H291.945V267.867H225.731V334.081ZM292.614 334.081H358.828V267.867H292.614V334.081ZM359.497 334.081H425.711V267.867H359.497V334.081ZM426.38 334.081H492.594V267.867H426.38V334.081ZM493.263 334.081H559.477V267.867H493.263V334.081ZM560.146 334.081H626.36V267.867H560.146V334.081ZM627.029 334.081H693.244V267.867H627.029V334.081ZM693.912 334.081H760.127V267.867H693.912V334.081ZM760.796 334.081H827.01V267.867H760.796V334.081ZM827.679 334.081H893.893V267.867H827.679V334.081ZM894.562 334.081H960.776V267.867H894.562V334.081ZM960.776 200.984V267.198H894.562V200.984H960.776ZM893.893 200.984V267.198H827.679V200.984H893.893ZM827.01 200.984V267.198H760.796V200.984H827.01ZM760.127 200.984V267.198H693.912V200.984H760.127ZM693.244 200.984V267.198H627.029V200.984H693.244ZM626.36 200.984V267.198H560.146V200.984H626.36ZM559.477 200.984V267.198H493.263V200.984H559.477ZM492.594 200.984V267.198H426.38V200.984H492.594ZM425.711 200.984V267.198H359.497V200.984H425.711ZM358.828 200.984V267.198H292.614V200.984H358.828ZM291.945 200.984V267.198H225.731V200.984H291.945ZM225.062 200.984V267.198H158.847V200.984H225.062ZM158.179 200.984V267.198H91.9643V200.984H158.179ZM91.9643 200.315H158.179V134.101H91.9643L91.9643 200.315ZM158.847 200.315H225.062V134.101H158.847V200.315ZM225.731 200.315H291.945V134.101H225.731V200.315ZM292.614 200.315H358.828V134.101H292.614V200.315ZM359.497 200.315H425.711V134.101H359.497V200.315ZM426.38 200.315H492.594V134.101H426.38V200.315ZM493.263 200.315H559.477V134.101H493.263V200.315ZM560.146 200.315H626.36V134.101H560.146V200.315ZM627.029 200.315H693.244V134.101H627.029V200.315ZM693.912 200.315H760.127V134.101H693.912V200.315ZM760.796 200.315H827.01V134.101H760.796V200.315ZM827.679 200.315H893.893V134.101H827.679V200.315ZM894.562 200.315H960.776V134.101H894.562V200.315ZM960.776 67.2175V133.432H894.562V67.2175H960.776ZM893.893 67.2175V133.432H827.679V67.2175H893.893ZM827.01 67.2175V133.432H760.796V67.2175H827.01ZM760.127 67.2175V133.432H693.912V67.2175H760.127ZM693.244 67.2175V133.432H627.029V67.2175H693.244ZM626.36 67.2175V133.432H560.146V67.2175H626.36ZM559.477 67.2175V133.432H493.263V67.2175H559.477ZM492.594 67.2175V133.432H426.38V67.2175H492.594ZM425.711 67.2175V133.432H359.497V67.2175H425.711ZM358.828 67.2175V133.432H292.614V67.2175H358.828ZM291.945 67.2175V133.432H225.731V67.2175H291.945ZM225.062 67.2175V133.432H158.847V67.2175H225.062ZM158.179 67.2175V133.432H91.9643V67.2175H158.179Z" fill="url(#paint0_linear_481_2742)" fill-opacity="0.7"/>
<defs>
<linearGradient id="paint0_linear_481_2742" x1="515" y1="514.331" x2="515" y2="100.325" gradientUnits="userSpaceOnUse">
<stop stop-color="white" stop-opacity="0.13"/>
<stop offset="1" stop-color="#0F1012" stop-opacity="0"/>
</linearGradient>
</defs>
</svg>
