<svg width="718" height="700" viewBox="0 0 718 700" fill="none" xmlns="http://www.w3.org/2000/svg">
<g opacity="0.8">
<path d="M627.86 115.919H681.495V175.748H627.86V115.919Z" fill="url(#paint0_linear_614_249)" fill-opacity="0.02" stroke="url(#paint1_radial_614_249)" stroke-opacity="0.08" stroke-width="1.49573"/>
<path d="M680.154 465.919H733.789V525.748H680.154V465.919Z" fill="url(#paint2_linear_614_249)" fill-opacity="0.02" stroke="url(#paint3_radial_614_249)" stroke-opacity="0.08" stroke-width="1.49573"/>
<path d="M157.212 174.252H210.847V234.081H157.212V174.252Z" fill="url(#paint4_linear_614_249)" fill-opacity="0.02" stroke="url(#paint5_radial_614_249)" stroke-opacity="0.08" stroke-width="1.49573"/>
<path d="M837.706 0H890V58.3333M837.706 0V58.3333M837.706 0H785.412M837.706 58.3333H890M837.706 58.3333H785.412M837.706 58.3333V116.667M890 58.3333V116.667M785.412 0V58.3333M785.412 0H733.118M785.412 58.3333H733.118M785.412 58.3333V116.667M733.118 0V58.3333M733.118 0H680.824M733.118 58.3333H680.824M733.118 58.3333V116.667M680.824 0V58.3333M680.824 0H628.529M680.824 58.3333H628.529M680.824 58.3333V116.667M628.529 0V58.3333M628.529 0H576.235M628.529 58.3333H576.235M628.529 58.3333V116.667M576.235 0V58.3333M576.235 0H523.941M576.235 58.3333H523.941M576.235 58.3333V116.667M523.941 0V58.3333M523.941 0H471.647M523.941 58.3333H471.647M523.941 58.3333V116.667M471.647 0V58.3333M471.647 0H419.353M471.647 58.3333H419.353M471.647 58.3333V116.667M419.353 0V58.3333M419.353 0H367.059M419.353 58.3333H367.059M419.353 58.3333V116.667M367.059 0V58.3333M367.059 0H314.765M367.059 58.3333H314.765M367.059 58.3333V116.667M314.765 0V58.3333M314.765 0H262.471M314.765 58.3333H262.471M314.765 58.3333V116.667M262.471 0V58.3333M262.471 0H210.176M262.471 58.3333H210.176M262.471 58.3333V116.667M210.176 0V58.3333M210.176 0H157.882M210.176 58.3333H157.882M210.176 58.3333V116.667M157.882 0V58.3333M157.882 0H105.588M157.882 58.3333H105.588M157.882 58.3333V116.667M105.588 0V58.3333M105.588 0H53.2941M105.588 58.3333H53.2941M105.588 58.3333V116.667M53.2941 0V58.3333M53.2941 0H1.00001V58.3333M53.2941 58.3333H1.00001M53.2941 58.3333V116.667M1.00001 58.3333V116.667M837.706 116.667H890M837.706 116.667H785.412M837.706 116.667V175M890 116.667V175M785.412 116.667H733.118M785.412 116.667V175M733.118 116.667H680.824M733.118 116.667V175M680.824 116.667H628.529M680.824 116.667V175M628.529 116.667H576.235M628.529 116.667V175M576.235 116.667H523.941M576.235 116.667V175M523.941 116.667H471.647M523.941 116.667V175M471.647 116.667H419.353M471.647 116.667V175M419.353 116.667H367.059M419.353 116.667V175M367.059 116.667H314.765M367.059 116.667V175M314.765 116.667H262.471M314.765 116.667V175M262.471 116.667H210.176M262.471 116.667V175M210.176 116.667H157.882M210.176 116.667V175M157.882 116.667H105.588M157.882 116.667V175M105.588 116.667H53.2941M105.588 116.667V175M53.2941 116.667H1.00001M53.2941 116.667V175M1.00001 116.667V175M837.706 175H890M837.706 175H785.412M837.706 175V233.333M890 175V233.333M785.412 175H733.118M785.412 175V233.333M733.118 175H680.824M733.118 175V233.333M680.824 175H628.529M680.824 175V233.333M628.529 175H576.235M628.529 175V233.333M576.235 175H523.941M576.235 175V233.333M523.941 175H471.647M523.941 175V233.333M471.647 175H419.353M471.647 175V233.333M419.353 175H367.059M419.353 175V233.333M367.059 175H314.765M367.059 175V233.333M314.765 175H262.471M314.765 175V233.333M262.471 175H210.176M262.471 175V233.333M210.176 175H157.882M210.176 175V233.333M157.882 175H105.588M157.882 175V233.333M105.588 175H53.2941M105.588 175V233.333M53.2941 175H1.00001M53.2941 175V233.333M1.00001 175V233.333M837.706 233.333H890M837.706 233.333H785.412M837.706 233.333V291.667M890 233.333V291.667M785.412 233.333H733.118M785.412 233.333V291.667M733.118 233.333H680.824M733.118 233.333V291.667M680.824 233.333H628.529M680.824 233.333V291.667M628.529 233.333H576.235M628.529 233.333V291.667M576.235 233.333H523.941M576.235 233.333V291.667M523.941 233.333H471.647M523.941 233.333V291.667M471.647 233.333H419.353M471.647 233.333V291.667M419.353 233.333H367.059M419.353 233.333V291.667M367.059 233.333H314.765M367.059 233.333V291.667M314.765 233.333H262.471M314.765 233.333V291.667M262.471 233.333H210.176M262.471 233.333V291.667M210.176 233.333H157.882M210.176 233.333V291.667M157.882 233.333H105.588M157.882 233.333V291.667M105.588 233.333H53.2941M105.588 233.333V291.667M53.2941 233.333H1.00001M53.2941 233.333V291.667M1.00001 233.333V291.667M837.706 291.667H890M837.706 291.667H785.412M837.706 291.667V350M890 291.667V350M785.412 291.667H733.118M785.412 291.667V350M733.118 291.667H680.824M733.118 291.667V350M680.824 291.667H628.529M680.824 291.667V350M628.529 291.667H576.235M628.529 291.667V350M576.235 291.667H523.941M576.235 291.667V350M523.941 291.667H471.647M523.941 291.667V350M471.647 291.667H419.353M471.647 291.667V350M419.353 291.667H367.059M419.353 291.667V350M367.059 291.667H314.765M367.059 291.667V350M314.765 291.667H262.471M314.765 291.667V350M262.471 291.667H210.176M262.471 291.667V350M210.176 291.667H157.882M210.176 291.667V350M157.882 291.667H105.588M157.882 291.667V350M105.588 291.667H53.2941M105.588 291.667V350M53.2941 291.667H1.00001M53.2941 291.667V350M1.00001 291.667V350M837.706 350H890M837.706 350H785.412M837.706 350V408.333M890 350V408.333M785.412 350H733.118M785.412 350V408.333M733.118 350H680.824M733.118 350V408.333M680.824 350H628.529M680.824 350V408.333M628.529 350H576.235M628.529 350V408.333M576.235 350H523.941M576.235 350V408.333M523.941 350H471.647M523.941 350V408.333M471.647 350H419.353M471.647 350V408.333M419.353 350H367.059M419.353 350V408.333M367.059 350H314.765M367.059 350V408.333M314.765 350H262.471M314.765 350V408.333M262.471 350H210.176M262.471 350V408.333M210.176 350H157.882M210.176 350V408.333M157.882 350H105.588M157.882 350V408.333M105.588 350H53.2941M105.588 350V408.333M53.2941 350H1.00001M53.2941 350V408.333M1.00001 350V408.333M837.706 408.333H890M837.706 408.333H785.412M837.706 408.333V466.667M890 408.333V466.667M785.412 408.333H733.118M785.412 408.333V466.667M733.118 408.333H680.824M733.118 408.333V466.667M680.824 408.333H628.529M680.824 408.333V466.667M628.529 408.333H576.235M628.529 408.333V466.667M576.235 408.333H523.941M576.235 408.333V466.667M523.941 408.333H471.647M523.941 408.333V466.667M471.647 408.333H419.353M471.647 408.333V466.667M419.353 408.333H367.059M419.353 408.333V466.667M367.059 408.333H314.765M367.059 408.333V466.667M314.765 408.333H262.471M314.765 408.333V466.667M262.471 408.333H210.176M262.471 408.333V466.667M210.176 408.333H157.882M210.176 408.333V466.667M157.882 408.333H105.588M157.882 408.333V466.667M105.588 408.333H53.2941M105.588 408.333V466.667M53.2941 408.333H1.00001M53.2941 408.333V466.667M1.00001 408.333V466.667M837.706 466.667H890M837.706 466.667H785.412M837.706 466.667V525M890 466.667V525M785.412 466.667H733.118M785.412 466.667V525M733.118 466.667H680.824M733.118 466.667V525M680.824 466.667H628.529M680.824 466.667V525M628.529 466.667H576.235M628.529 466.667V525M576.235 466.667H523.941M576.235 466.667V525M523.941 466.667H471.647M523.941 466.667V525M471.647 466.667H419.353M471.647 466.667V525M419.353 466.667H367.059M419.353 466.667V525M367.059 466.667H314.765M367.059 466.667V525M314.765 466.667H262.471M314.765 466.667V525M262.471 466.667H210.176M262.471 466.667V525M210.176 466.667H157.882M210.176 466.667V525M157.882 466.667H105.588M157.882 466.667V525M105.588 466.667H53.2941M105.588 466.667V525M53.2941 466.667H1.00001M53.2941 466.667V525M1.00001 466.667V525M837.706 525H890M837.706 525H785.412M837.706 525V583.333M890 525V583.333M785.412 525H733.118M785.412 525V583.333M733.118 525H680.824M733.118 525V583.333M680.824 525H628.529M680.824 525V583.333M628.529 525H576.235M628.529 525V583.333M576.235 525H523.941M576.235 525V583.333M523.941 525H471.647M523.941 525V583.333M471.647 525H419.353M471.647 525V583.333M419.353 525H367.059M419.353 525V583.333M367.059 525H314.765M367.059 525V583.333M314.765 525H262.471M314.765 525V583.333M262.471 525H210.176M262.471 525V583.333M210.176 525H157.882M210.176 525V583.333M157.882 525H105.588M157.882 525V583.333M105.588 525H53.2941M105.588 525V583.333M53.2941 525H1.00001M53.2941 525V583.333M1.00001 525V583.333M837.706 583.333H890M837.706 583.333H785.412M837.706 583.333V641.667M890 583.333V641.667M785.412 583.333H733.118M785.412 583.333V641.667M733.118 583.333H680.824M733.118 583.333V641.667M680.824 583.333H628.529M680.824 583.333V641.667M628.529 583.333H576.235M628.529 583.333V641.667M576.235 583.333H523.941M576.235 583.333V641.667M523.941 583.333H471.647M523.941 583.333V641.667M471.647 583.333H419.353M471.647 583.333V641.667M419.353 583.333H367.059M419.353 583.333V641.667M367.059 583.333H314.765M367.059 583.333V641.667M314.765 583.333H262.471M314.765 583.333V641.667M262.471 583.333H210.176M262.471 583.333V641.667M210.176 583.333H157.882M210.176 583.333V641.667M157.882 583.333H105.588M157.882 583.333V641.667M105.588 583.333H53.2941M105.588 583.333V641.667M53.2941 583.333H1.00001M53.2941 583.333V641.667M1.00001 583.333V641.667M837.706 641.667H890M837.706 641.667H785.412M837.706 641.667V700M890 641.667V700H837.706M785.412 641.667H733.118M785.412 641.667V700M733.118 641.667H680.824M733.118 641.667V700M680.824 641.667H628.529M680.824 641.667V700M628.529 641.667H576.235M628.529 641.667V700M576.235 641.667H523.941M576.235 641.667V700M523.941 641.667H471.647M523.941 641.667V700M471.647 641.667H419.353M471.647 641.667V700M419.353 641.667H367.059M419.353 641.667V700M367.059 641.667H314.765M367.059 641.667V700M314.765 641.667H262.471M314.765 641.667V700M262.471 641.667H210.176M262.471 641.667V700M210.176 641.667H157.882M210.176 641.667V700M157.882 641.667H105.588M157.882 641.667V700M105.588 641.667H53.2941M105.588 641.667V700M53.2941 641.667H1.00001M53.2941 641.667V700M1.00001 641.667V700H53.2941M837.706 700H785.412M785.412 700H733.118M733.118 700H680.824M680.824 700H628.529M628.529 700H576.235M576.235 700H523.941M523.941 700H471.647M471.647 700H419.353M419.353 700H367.059M367.059 700H314.765M314.765 700H262.471M262.471 700H210.176M210.176 700H157.882M157.882 700H105.588M105.588 700H53.2941" stroke="url(#paint6_radial_614_249)" stroke-opacity="0.08" stroke-width="1.49573"/>
</g>
<defs>
<linearGradient id="paint0_linear_614_249" x1="654.678" y1="115.919" x2="654.678" y2="175.748" gradientUnits="userSpaceOnUse">
<stop stop-color="white" stop-opacity="0"/>
<stop offset="1" stop-color="white"/>
</linearGradient>
<radialGradient id="paint1_radial_614_249" cx="0" cy="0" r="1" gradientUnits="userSpaceOnUse" gradientTransform="translate(654.678 147.431) rotate(90) scale(28.2526 26.8579)">
<stop stop-color="#FCD535"/>
<stop offset="1" stop-color="white" stop-opacity="0"/>
</radialGradient>
<linearGradient id="paint2_linear_614_249" x1="706.972" y1="465.919" x2="706.972" y2="525.748" gradientUnits="userSpaceOnUse">
<stop stop-color="white" stop-opacity="0"/>
<stop offset="1" stop-color="white"/>
</linearGradient>
<radialGradient id="paint3_radial_614_249" cx="0" cy="0" r="1" gradientUnits="userSpaceOnUse" gradientTransform="translate(706.972 497.431) rotate(90) scale(28.2526 26.8579)">
<stop stop-color="#FCD535"/>
<stop offset="1" stop-color="white" stop-opacity="0"/>
</radialGradient>
<linearGradient id="paint4_linear_614_249" x1="184.029" y1="174.252" x2="184.029" y2="234.081" gradientUnits="userSpaceOnUse">
<stop stop-color="white" stop-opacity="0"/>
<stop offset="1" stop-color="white"/>
</linearGradient>
<radialGradient id="paint5_radial_614_249" cx="0" cy="0" r="1" gradientUnits="userSpaceOnUse" gradientTransform="translate(184.029 205.764) rotate(90) scale(28.2526 26.8579)">
<stop stop-color="#FCD535"/>
<stop offset="1" stop-color="white" stop-opacity="0"/>
</radialGradient>
<radialGradient id="paint6_radial_614_249" cx="0" cy="0" r="1" gradientUnits="userSpaceOnUse" gradientTransform="translate(445.5 368.697) rotate(90) scale(330.556 445.17)">
<stop stop-color="#FCD535"/>
<stop offset="1" stop-color="white" stop-opacity="0"/>
</radialGradient>
</defs>
</svg>
