<svg width="890" height="700" viewBox="0 0 890 700" fill="none" xmlns="http://www.w3.org/2000/svg">
<g opacity="0.8">
<path d="M626.861 115.919H680.496V175.748H626.861V115.919Z" fill="url(#paint0_linear_572_1946)" fill-opacity="0.02" stroke="url(#paint1_radial_572_1946)" stroke-opacity="0.08" stroke-width="1.49573"/>
<path d="M679.154 465.919H732.789V525.748H679.154V465.919Z" fill="url(#paint2_linear_572_1946)" fill-opacity="0.02" stroke="url(#paint3_radial_572_1946)" stroke-opacity="0.08" stroke-width="1.49573"/>
<path d="M156.213 174.252H209.848V234.081H156.213V174.252Z" fill="url(#paint4_linear_572_1946)" fill-opacity="0.02" stroke="url(#paint5_radial_572_1946)" stroke-opacity="0.08" stroke-width="1.49573"/>
<path d="M836.706 0H889V58.3333M836.706 0V58.3333M836.706 0H784.412M836.706 58.3333H889M836.706 58.3333H784.412M836.706 58.3333V116.667M889 58.3333V116.667M784.412 0V58.3333M784.412 0H732.118M784.412 58.3333H732.118M784.412 58.3333V116.667M732.118 0V58.3333M732.118 0H679.824M732.118 58.3333H679.824M732.118 58.3333V116.667M679.824 0V58.3333M679.824 0H627.529M679.824 58.3333H627.529M679.824 58.3333V116.667M627.529 0V58.3333M627.529 0H575.235M627.529 58.3333H575.235M627.529 58.3333V116.667M575.235 0V58.3333M575.235 0H522.941M575.235 58.3333H522.941M575.235 58.3333V116.667M522.941 0V58.3333M522.941 0H470.647M522.941 58.3333H470.647M522.941 58.3333V116.667M470.647 0V58.3333M470.647 0H418.353M470.647 58.3333H418.353M470.647 58.3333V116.667M418.353 0V58.3333M418.353 0H366.059M418.353 58.3333H366.059M418.353 58.3333V116.667M366.059 0V58.3333M366.059 0H313.765M366.059 58.3333H313.765M366.059 58.3333V116.667M313.765 0V58.3333M313.765 0H261.471M313.765 58.3333H261.471M313.765 58.3333V116.667M261.471 0V58.3333M261.471 0H209.176M261.471 58.3333H209.176M261.471 58.3333V116.667M209.176 0V58.3333M209.176 0H156.882M209.176 58.3333H156.882M209.176 58.3333V116.667M156.882 0V58.3333M156.882 0H104.588M156.882 58.3333H104.588M156.882 58.3333V116.667M104.588 0V58.3333M104.588 0H52.2941M104.588 58.3333H52.2941M104.588 58.3333V116.667M52.2941 0V58.3333M52.2941 0H1.34706e-05V58.3333M52.2941 58.3333H1.34706e-05M52.2941 58.3333V116.667M1.34706e-05 58.3333V116.667M836.706 116.667H889M836.706 116.667H784.412M836.706 116.667V175M889 116.667V175M784.412 116.667H732.118M784.412 116.667V175M732.118 116.667H679.824M732.118 116.667V175M679.824 116.667H627.529M679.824 116.667V175M627.529 116.667H575.235M627.529 116.667V175M575.235 116.667H522.941M575.235 116.667V175M522.941 116.667H470.647M522.941 116.667V175M470.647 116.667H418.353M470.647 116.667V175M418.353 116.667H366.059M418.353 116.667V175M366.059 116.667H313.765M366.059 116.667V175M313.765 116.667H261.471M313.765 116.667V175M261.471 116.667H209.176M261.471 116.667V175M209.176 116.667H156.882M209.176 116.667V175M156.882 116.667H104.588M156.882 116.667V175M104.588 116.667H52.2941M104.588 116.667V175M52.2941 116.667H1.34706e-05M52.2941 116.667V175M1.34706e-05 116.667V175M836.706 175H889M836.706 175H784.412M836.706 175V233.333M889 175V233.333M784.412 175H732.118M784.412 175V233.333M732.118 175H679.824M732.118 175V233.333M679.824 175H627.529M679.824 175V233.333M627.529 175H575.235M627.529 175V233.333M575.235 175H522.941M575.235 175V233.333M522.941 175H470.647M522.941 175V233.333M470.647 175H418.353M470.647 175V233.333M418.353 175H366.059M418.353 175V233.333M366.059 175H313.765M366.059 175V233.333M313.765 175H261.471M313.765 175V233.333M261.471 175H209.176M261.471 175V233.333M209.176 175H156.882M209.176 175V233.333M156.882 175H104.588M156.882 175V233.333M104.588 175H52.2941M104.588 175V233.333M52.2941 175H1.34706e-05M52.2941 175V233.333M1.34706e-05 175V233.333M836.706 233.333H889M836.706 233.333H784.412M836.706 233.333V291.667M889 233.333V291.667M784.412 233.333H732.118M784.412 233.333V291.667M732.118 233.333H679.824M732.118 233.333V291.667M679.824 233.333H627.529M679.824 233.333V291.667M627.529 233.333H575.235M627.529 233.333V291.667M575.235 233.333H522.941M575.235 233.333V291.667M522.941 233.333H470.647M522.941 233.333V291.667M470.647 233.333H418.353M470.647 233.333V291.667M418.353 233.333H366.059M418.353 233.333V291.667M366.059 233.333H313.765M366.059 233.333V291.667M313.765 233.333H261.471M313.765 233.333V291.667M261.471 233.333H209.176M261.471 233.333V291.667M209.176 233.333H156.882M209.176 233.333V291.667M156.882 233.333H104.588M156.882 233.333V291.667M104.588 233.333H52.2941M104.588 233.333V291.667M52.2941 233.333H1.34706e-05M52.2941 233.333V291.667M1.34706e-05 233.333V291.667M836.706 291.667H889M836.706 291.667H784.412M836.706 291.667V350M889 291.667V350M784.412 291.667H732.118M784.412 291.667V350M732.118 291.667H679.824M732.118 291.667V350M679.824 291.667H627.529M679.824 291.667V350M627.529 291.667H575.235M627.529 291.667V350M575.235 291.667H522.941M575.235 291.667V350M522.941 291.667H470.647M522.941 291.667V350M470.647 291.667H418.353M470.647 291.667V350M418.353 291.667H366.059M418.353 291.667V350M366.059 291.667H313.765M366.059 291.667V350M313.765 291.667H261.471M313.765 291.667V350M261.471 291.667H209.176M261.471 291.667V350M209.176 291.667H156.882M209.176 291.667V350M156.882 291.667H104.588M156.882 291.667V350M104.588 291.667H52.2941M104.588 291.667V350M52.2941 291.667H1.34706e-05M52.2941 291.667V350M1.34706e-05 291.667V350M836.706 350H889M836.706 350H784.412M836.706 350V408.333M889 350V408.333M784.412 350H732.118M784.412 350V408.333M732.118 350H679.824M732.118 350V408.333M679.824 350H627.529M679.824 350V408.333M627.529 350H575.235M627.529 350V408.333M575.235 350H522.941M575.235 350V408.333M522.941 350H470.647M522.941 350V408.333M470.647 350H418.353M470.647 350V408.333M418.353 350H366.059M418.353 350V408.333M366.059 350H313.765M366.059 350V408.333M313.765 350H261.471M313.765 350V408.333M261.471 350H209.176M261.471 350V408.333M209.176 350H156.882M209.176 350V408.333M156.882 350H104.588M156.882 350V408.333M104.588 350H52.2941M104.588 350V408.333M52.2941 350H1.34706e-05M52.2941 350V408.333M1.34706e-05 350V408.333M836.706 408.333H889M836.706 408.333H784.412M836.706 408.333V466.667M889 408.333V466.667M784.412 408.333H732.118M784.412 408.333V466.667M732.118 408.333H679.824M732.118 408.333V466.667M679.824 408.333H627.529M679.824 408.333V466.667M627.529 408.333H575.235M627.529 408.333V466.667M575.235 408.333H522.941M575.235 408.333V466.667M522.941 408.333H470.647M522.941 408.333V466.667M470.647 408.333H418.353M470.647 408.333V466.667M418.353 408.333H366.059M418.353 408.333V466.667M366.059 408.333H313.765M366.059 408.333V466.667M313.765 408.333H261.471M313.765 408.333V466.667M261.471 408.333H209.176M261.471 408.333V466.667M209.176 408.333H156.882M209.176 408.333V466.667M156.882 408.333H104.588M156.882 408.333V466.667M104.588 408.333H52.2941M104.588 408.333V466.667M52.2941 408.333H1.34706e-05M52.2941 408.333V466.667M1.34706e-05 408.333V466.667M836.706 466.667H889M836.706 466.667H784.412M836.706 466.667V525M889 466.667V525M784.412 466.667H732.118M784.412 466.667V525M732.118 466.667H679.824M732.118 466.667V525M679.824 466.667H627.529M679.824 466.667V525M627.529 466.667H575.235M627.529 466.667V525M575.235 466.667H522.941M575.235 466.667V525M522.941 466.667H470.647M522.941 466.667V525M470.647 466.667H418.353M470.647 466.667V525M418.353 466.667H366.059M418.353 466.667V525M366.059 466.667H313.765M366.059 466.667V525M313.765 466.667H261.471M313.765 466.667V525M261.471 466.667H209.176M261.471 466.667V525M209.176 466.667H156.882M209.176 466.667V525M156.882 466.667H104.588M156.882 466.667V525M104.588 466.667H52.2941M104.588 466.667V525M52.2941 466.667H1.34706e-05M52.2941 466.667V525M1.34706e-05 466.667V525M836.706 525H889M836.706 525H784.412M836.706 525V583.333M889 525V583.333M784.412 525H732.118M784.412 525V583.333M732.118 525H679.824M732.118 525V583.333M679.824 525H627.529M679.824 525V583.333M627.529 525H575.235M627.529 525V583.333M575.235 525H522.941M575.235 525V583.333M522.941 525H470.647M522.941 525V583.333M470.647 525H418.353M470.647 525V583.333M418.353 525H366.059M418.353 525V583.333M366.059 525H313.765M366.059 525V583.333M313.765 525H261.471M313.765 525V583.333M261.471 525H209.176M261.471 525V583.333M209.176 525H156.882M209.176 525V583.333M156.882 525H104.588M156.882 525V583.333M104.588 525H52.2941M104.588 525V583.333M52.2941 525H1.34706e-05M52.2941 525V583.333M1.34706e-05 525V583.333M836.706 583.333H889M836.706 583.333H784.412M836.706 583.333V641.667M889 583.333V641.667M784.412 583.333H732.118M784.412 583.333V641.667M732.118 583.333H679.824M732.118 583.333V641.667M679.824 583.333H627.529M679.824 583.333V641.667M627.529 583.333H575.235M627.529 583.333V641.667M575.235 583.333H522.941M575.235 583.333V641.667M522.941 583.333H470.647M522.941 583.333V641.667M470.647 583.333H418.353M470.647 583.333V641.667M418.353 583.333H366.059M418.353 583.333V641.667M366.059 583.333H313.765M366.059 583.333V641.667M313.765 583.333H261.471M313.765 583.333V641.667M261.471 583.333H209.176M261.471 583.333V641.667M209.176 583.333H156.882M209.176 583.333V641.667M156.882 583.333H104.588M156.882 583.333V641.667M104.588 583.333H52.2941M104.588 583.333V641.667M52.2941 583.333H1.34706e-05M52.2941 583.333V641.667M1.34706e-05 583.333V641.667M836.706 641.667H889M836.706 641.667H784.412M836.706 641.667V700M889 641.667V700H836.706M784.412 641.667H732.118M784.412 641.667V700M732.118 641.667H679.824M732.118 641.667V700M679.824 641.667H627.529M679.824 641.667V700M627.529 641.667H575.235M627.529 641.667V700M575.235 641.667H522.941M575.235 641.667V700M522.941 641.667H470.647M522.941 641.667V700M470.647 641.667H418.353M470.647 641.667V700M418.353 641.667H366.059M418.353 641.667V700M366.059 641.667H313.765M366.059 641.667V700M313.765 641.667H261.471M313.765 641.667V700M261.471 641.667H209.176M261.471 641.667V700M209.176 641.667H156.882M209.176 641.667V700M156.882 641.667H104.588M156.882 641.667V700M104.588 641.667H52.2941M104.588 641.667V700M52.2941 641.667H1.34706e-05M52.2941 641.667V700M1.34706e-05 641.667V700H52.2941M836.706 700H784.412M784.412 700H732.118M732.118 700H679.824M679.824 700H627.529M627.529 700H575.235M575.235 700H522.941M522.941 700H470.647M470.647 700H418.353M418.353 700H366.059M366.059 700H313.765M313.765 700H261.471M261.471 700H209.176M209.176 700H156.882M156.882 700H104.588M104.588 700H52.2941" stroke="url(#paint6_radial_572_1946)" stroke-opacity="0.08" stroke-width="1.49573"/>
</g>
<defs>
<linearGradient id="paint0_linear_572_1946" x1="653.679" y1="115.919" x2="653.679" y2="175.748" gradientUnits="userSpaceOnUse">
<stop stop-color="white" stop-opacity="0"/>
<stop offset="1" stop-color="white"/>
</linearGradient>
<radialGradient id="paint1_radial_572_1946" cx="0" cy="0" r="1" gradientUnits="userSpaceOnUse" gradientTransform="translate(653.679 147.431) rotate(90) scale(28.2526 26.8579)">
<stop stop-color="#FCD535"/>
<stop offset="1" stop-color="white" stop-opacity="0"/>
</radialGradient>
<linearGradient id="paint2_linear_572_1946" x1="705.972" y1="465.919" x2="705.972" y2="525.748" gradientUnits="userSpaceOnUse">
<stop stop-color="white" stop-opacity="0"/>
<stop offset="1" stop-color="white"/>
</linearGradient>
<radialGradient id="paint3_radial_572_1946" cx="0" cy="0" r="1" gradientUnits="userSpaceOnUse" gradientTransform="translate(705.972 497.431) rotate(90) scale(28.2526 26.8579)">
<stop stop-color="#FCD535"/>
<stop offset="1" stop-color="white" stop-opacity="0"/>
</radialGradient>
<linearGradient id="paint4_linear_572_1946" x1="183.03" y1="174.252" x2="183.03" y2="234.081" gradientUnits="userSpaceOnUse">
<stop stop-color="white" stop-opacity="0"/>
<stop offset="1" stop-color="white"/>
</linearGradient>
<radialGradient id="paint5_radial_572_1946" cx="0" cy="0" r="1" gradientUnits="userSpaceOnUse" gradientTransform="translate(183.03 205.764) rotate(90) scale(28.2526 26.8579)">
<stop stop-color="#FCD535"/>
<stop offset="1" stop-color="white" stop-opacity="0"/>
</radialGradient>
<radialGradient id="paint6_radial_572_1946" cx="0" cy="0" r="1" gradientUnits="userSpaceOnUse" gradientTransform="translate(444.5 368.697) rotate(90) scale(330.556 445.17)">
<stop stop-color="#FCD535"/>
<stop offset="1" stop-color="white" stop-opacity="0"/>
</radialGradient>
</defs>
</svg>
