<svg width="1068" height="428" viewBox="0 0 1068 428" fill="none" xmlns="http://www.w3.org/2000/svg">
<path d="M122.574 333.587C122.744 333.138 122.379 332.704 122.001 332.906C121.919 332.951 121.856 333.026 121.819 333.123C121.642 333.573 122.014 334.007 122.392 333.804C122.474 333.76 122.537 333.685 122.574 333.587Z" fill="white" fill-opacity="0.1"/>
<path d="M425.59 359.587C425.76 359.138 425.394 358.704 425.015 358.906C424.933 358.951 424.87 359.026 424.832 359.123C424.662 359.572 425.028 360.007 425.407 359.804C425.489 359.76 425.552 359.685 425.59 359.587Z" fill="white" fill-opacity="0.1"/>
<path d="M360.176 316.732C360.346 316.283 359.981 315.849 359.603 316.051C359.521 316.096 359.458 316.171 359.42 316.268C359.244 316.717 359.615 317.151 359.993 316.949C360.075 316.904 360.138 316.829 360.176 316.732Z" fill="white" fill-opacity="0.1"/>
<path d="M271.33 110.826C271.506 110.377 271.135 109.943 270.757 110.145C270.675 110.19 270.612 110.264 270.574 110.362C270.404 110.811 270.769 111.245 271.147 111.043C271.229 110.998 271.292 110.923 271.33 110.826Z" fill="white" fill-opacity="0.1"/>
<path d="M326.119 99.2991C326.295 98.8513 325.924 98.4109 325.546 98.6199C325.464 98.6647 325.401 98.7393 325.363 98.8364C325.193 99.2842 325.559 99.7171 325.936 99.5156C326.018 99.4708 326.081 99.3961 326.119 99.2991Z" fill="white" fill-opacity="0.1"/>
<path d="M965.039 6.732C965.209 6.28297 964.843 5.84891 964.465 6.05097C964.382 6.09587 964.319 6.17071 964.281 6.268C964.111 6.71703 964.477 7.15109 964.856 6.94903C964.938 6.90413 965.001 6.82929 965.039 6.732Z" fill="white" fill-opacity="0.8"/>
<path d="M682.43 377.732C682.6 377.283 682.234 376.849 681.855 377.051C681.773 377.096 681.71 377.171 681.672 377.268C681.502 377.717 681.868 378.151 682.247 377.949C682.329 377.904 682.392 377.829 682.43 377.732Z" fill="white" fill-opacity="0.8"/>
<path d="M757.486 403.355C757.662 402.906 757.291 402.472 756.913 402.674C756.831 402.719 756.768 402.794 756.731 402.891C756.561 403.34 756.926 403.774 757.304 403.572C757.385 403.527 757.448 403.452 757.486 403.355Z" fill="white" fill-opacity="0.1"/>
<path d="M912.478 301.125C912.655 300.676 912.283 300.241 911.905 300.444C911.823 300.488 911.761 300.563 911.723 300.661C911.553 301.11 911.918 301.544 912.296 301.342C912.378 301.297 912.441 301.222 912.478 301.125Z" fill="white" fill-opacity="0.1"/>
<path d="M948.275 138.599C948.451 138.15 948.08 137.716 947.702 137.918C947.62 137.963 947.557 138.038 947.52 138.135C947.35 138.584 947.715 139.018 948.093 138.816C948.174 138.771 948.237 138.696 948.275 138.599Z" fill="white" fill-opacity="0.1"/>
<path d="M911.711 15.9625C911.881 15.5134 911.516 15.0794 911.138 15.2814C911.056 15.3263 910.993 15.4012 910.955 15.4985C910.779 15.9475 911.151 16.3816 911.528 16.1795C911.61 16.1346 911.673 16.0597 911.711 15.9625Z" fill="white" fill-opacity="0.1"/>
<path d="M975.16 45.732C975.331 45.283 974.964 44.8489 974.586 45.051C974.504 45.0959 974.44 45.1707 974.403 45.268C974.232 45.717 974.598 46.1511 974.977 45.949C975.059 45.9041 975.122 45.8293 975.16 45.732Z" fill="white" fill-opacity="0.1"/>
<path d="M905.982 69.732C906.159 69.283 905.787 68.8489 905.409 69.051C905.327 69.0959 905.264 69.1707 905.227 69.268C905.057 69.717 905.422 70.1511 905.8 69.949C905.881 69.9041 905.944 69.8293 905.982 69.732Z" fill="white" fill-opacity="0.1"/>
<path d="M907.67 176.732C907.846 176.283 907.475 175.849 907.097 176.051C907.015 176.096 906.952 176.171 906.914 176.268C906.744 176.717 907.109 177.151 907.487 176.949C907.569 176.904 907.632 176.829 907.67 176.732Z" fill="white" fill-opacity="0.1"/>
<path d="M1040.96 193.732C1041.13 193.283 1040.77 192.849 1040.39 193.051C1040.31 193.096 1040.24 193.171 1040.21 193.268C1040.03 193.717 1040.4 194.151 1040.78 193.949C1040.86 193.904 1040.92 193.829 1040.96 193.732Z" fill="white" fill-opacity="0.1"/>
<path d="M333.18 202.732C333.35 202.283 332.985 201.849 332.607 202.051C332.525 202.096 332.462 202.171 332.424 202.268C332.248 202.717 332.619 203.151 332.997 202.949C333.079 202.904 333.142 202.829 333.18 202.732Z" fill="white" fill-opacity="0.1"/>
<path d="M546.609 351.732C546.78 351.283 546.414 350.849 546.035 351.051C545.953 351.096 545.89 351.171 545.852 351.268C545.681 351.717 546.047 352.151 546.426 351.949C546.508 351.904 546.571 351.829 546.609 351.732Z" fill="white" fill-opacity="0.1"/>
<path d="M432.197 312.773C432.373 312.324 432.002 311.89 431.624 312.092C431.542 312.137 431.479 312.212 431.441 312.309C431.271 312.758 431.637 313.192 432.014 312.99C432.096 312.945 432.159 312.87 432.197 312.773Z" fill="white" fill-opacity="0.1"/>
<path d="M217.481 372.509C217.651 372.06 217.285 371.626 216.908 371.828C216.826 371.873 216.763 371.948 216.725 372.045C216.549 372.494 216.92 372.928 217.298 372.726C217.38 372.681 217.443 372.607 217.481 372.509Z" fill="white" fill-opacity="0.1"/>
<path d="M725.451 8.73199C725.627 8.28296 725.256 7.84891 724.878 8.05097C724.796 8.09588 724.733 8.17071 724.695 8.268C724.525 8.71703 724.891 9.15109 725.268 8.94903C725.35 8.90413 725.413 8.82928 725.451 8.73199Z" fill="white" fill-opacity="0.8"/>
<path d="M334.867 405.732C335.037 405.283 334.672 404.849 334.294 405.051C334.212 405.096 334.149 405.171 334.112 405.268C333.935 405.717 334.307 406.151 334.685 405.949C334.767 405.904 334.829 405.829 334.867 405.732Z" fill="white" fill-opacity="0.8"/>
<path d="M223.51 54.732C223.686 54.283 223.314 53.8489 222.937 54.051C222.855 54.0959 222.792 54.1707 222.754 54.268C222.584 54.717 222.949 55.1511 223.327 54.949C223.409 54.9041 223.472 54.8293 223.51 54.732Z" fill="white" fill-opacity="0.1"/>
<path d="M327.274 17.732C327.444 17.283 327.078 16.8489 326.701 17.051C326.619 17.0959 326.556 17.1707 326.518 17.268C326.342 17.717 326.713 18.1511 327.091 17.949C327.173 17.9041 327.236 17.8293 327.274 17.732Z" fill="white" fill-opacity="0.8"/>
<path d="M83.4726 278.732C83.6431 278.283 83.2769 277.849 82.8981 278.051C82.816 278.096 82.7529 278.171 82.715 278.268C82.5446 278.717 82.9107 279.151 83.2895 278.949C83.3716 278.904 83.4347 278.829 83.4726 278.732Z" fill="white" fill-opacity="0.8"/>
<path d="M133.767 258.878C133.944 258.429 133.572 257.995 133.194 258.197C133.113 258.242 133.05 258.317 133.012 258.414C132.842 258.864 133.207 259.298 133.585 259.096C133.667 259.051 133.73 258.976 133.767 258.878Z" fill="white" fill-opacity="0.1"/>
<path d="M140.84 142.732C141.01 142.283 140.644 141.849 140.265 142.051C140.183 142.096 140.12 142.171 140.082 142.268C139.912 142.717 140.278 143.151 140.657 142.949C140.739 142.904 140.802 142.829 140.84 142.732Z" fill="white" fill-opacity="0.1"/>
<path d="M134.934 195.732C135.104 195.283 134.738 194.849 134.361 195.051C134.279 195.096 134.216 195.171 134.178 195.268C134.002 195.717 134.373 196.151 134.751 195.949C134.833 195.904 134.896 195.829 134.934 195.732Z" fill="white" fill-opacity="0.1"/>
<path d="M210.774 409.91C210.944 409.461 210.578 409.027 210.201 409.229C210.119 409.274 210.056 409.348 210.018 409.446C209.842 409.895 210.213 410.329 210.591 410.127C210.673 410.082 210.736 410.007 210.774 409.91Z" fill="white" fill-opacity="0.8"/>
<path d="M325.832 260.462C326.002 260.013 325.636 259.579 325.257 259.781C325.175 259.826 325.112 259.901 325.074 259.998C324.904 260.448 325.27 260.882 325.649 260.679C325.731 260.635 325.794 260.56 325.832 260.462Z" fill="white" fill-opacity="0.1"/>
<path d="M297.48 220.359C297.651 219.91 297.285 219.476 296.906 219.678C296.824 219.723 296.761 219.798 296.723 219.895C296.552 220.344 296.919 220.778 297.297 220.576C297.379 220.531 297.443 220.456 297.48 220.359Z" fill="white" fill-opacity="0.8"/>
<path d="M184.976 146.949C185.355 147.151 185.721 146.718 185.551 146.27C185.513 146.173 185.45 146.098 185.368 146.054C184.989 145.845 184.623 146.285 184.793 146.733C184.831 146.83 184.894 146.904 184.976 146.949Z" fill="white" fill-opacity="0.8"/>
<path d="M220.469 297.273C220.639 296.824 220.274 296.39 219.896 296.592C219.814 296.637 219.751 296.712 219.713 296.809C219.537 297.258 219.908 297.692 220.286 297.49C220.368 297.445 220.431 297.37 220.469 297.273Z" fill="white" fill-opacity="0.1"/>
<path d="M486.715 340.732C486.885 340.283 486.52 339.849 486.142 340.051C486.06 340.096 485.997 340.171 485.959 340.268C485.783 340.717 486.155 341.151 486.532 340.949C486.614 340.904 486.677 340.829 486.715 340.732Z" fill="white" fill-opacity="0.1"/>
<path d="M603.977 417.73C604.147 417.282 603.781 416.849 603.404 417.051C603.322 417.096 603.259 417.17 603.221 417.267C603.045 417.715 603.416 418.155 603.794 417.946C603.876 417.902 603.939 417.827 603.977 417.73Z" fill="white" fill-opacity="0.1"/>
<path d="M546.609 386.732C546.78 386.283 546.414 385.849 546.035 386.051C545.953 386.096 545.89 386.171 545.852 386.268C545.681 386.717 546.047 387.151 546.426 386.949C546.508 386.904 546.571 386.829 546.609 386.732Z" fill="white" fill-opacity="0.8"/>
<path d="M801.762 247.695C801.932 247.246 801.567 246.812 801.189 247.014C801.107 247.059 801.044 247.134 801.006 247.231C800.83 247.68 801.201 248.114 801.579 247.912C801.661 247.867 801.724 247.792 801.762 247.695Z" fill="white" fill-opacity="0.8"/>
<path d="M320.063 88.5211C320.233 88.072 319.867 87.638 319.49 87.84C319.408 87.8849 319.345 87.9598 319.307 88.0571C319.131 88.5061 319.502 88.9402 319.88 88.7381C319.962 88.6932 320.025 88.6183 320.063 88.5211Z" fill="white" fill-opacity="0.1"/>
<path d="M862.371 107.755C862.541 107.306 862.176 106.872 861.798 107.074C861.716 107.119 861.653 107.194 861.616 107.291C861.439 107.74 861.811 108.175 862.189 107.972C862.27 107.928 862.333 107.853 862.371 107.755Z" fill="white" fill-opacity="0.1"/>
<path d="M874.793 25.1676C874.963 24.7197 874.598 24.2868 874.22 24.4883C874.138 24.5331 874.075 24.6078 874.037 24.7048C873.861 25.1526 874.233 25.593 874.61 25.384C874.692 25.3392 874.755 25.2646 874.793 25.1676Z" fill="white" fill-opacity="0.1"/>
<path d="M816.649 207.22C816.819 206.771 816.453 206.337 816.076 206.539C815.994 206.584 815.931 206.659 815.893 206.756C815.717 207.205 816.088 207.639 816.466 207.437C816.548 207.392 816.611 207.318 816.649 207.22Z" fill="white" fill-opacity="0.1"/>
<path d="M81.7852 8.73004C81.9552 8.28222 81.5901 7.84931 81.2123 8.05084C81.1304 8.09562 81.0674 8.17026 81.0297 8.26729C80.8534 8.71512 81.2249 9.15548 81.6026 8.9465C81.6845 8.90172 81.7475 8.82707 81.7852 8.73004Z" fill="white" fill-opacity="0.1"/>
<path d="M979.196 78.0535C978.817 77.8445 978.451 78.2849 978.621 78.7327C978.659 78.8297 978.722 78.9044 978.804 78.9492C979.183 79.1507 979.549 78.7178 979.379 78.27C979.341 78.1729 979.278 78.0983 979.196 78.0535Z" fill="white" fill-opacity="0.1"/>
<path d="M554.201 19.732C554.377 19.283 554.006 18.8489 553.628 19.051C553.546 19.0959 553.483 19.1707 553.445 19.268C553.275 19.717 553.641 20.1511 554.018 19.949C554.1 19.9041 554.163 19.8293 554.201 19.732Z" fill="white" fill-opacity="0.1"/>
<path d="M425.68 281.185C425.85 280.736 425.484 280.302 425.105 280.504C425.023 280.549 424.96 280.624 424.922 280.721C424.752 281.17 425.118 281.604 425.497 281.402C425.579 281.357 425.642 281.282 425.68 281.185Z" fill="white" fill-opacity="0.1"/>
<path d="M476.656 32.0621C476.826 31.6142 476.461 31.1813 476.083 31.3829C476.002 31.4277 475.939 31.5023 475.901 31.5993C475.724 32.0471 476.096 32.4875 476.474 32.2785C476.556 32.2337 476.619 32.1591 476.656 32.0621Z" fill="white" fill-opacity="0.1"/>
<path d="M839.338 312.732C839.514 312.283 839.142 311.849 838.765 312.051C838.683 312.096 838.62 312.171 838.582 312.268C838.412 312.717 838.777 313.151 839.155 312.949C839.237 312.904 839.3 312.829 839.338 312.732Z" fill="white" fill-opacity="0.8"/>
<path d="M121.572 46.8824C121.748 46.4334 121.377 45.9993 120.999 46.2014C120.917 46.2463 120.854 46.3211 120.816 46.4184C120.646 46.8674 121.012 47.3015 121.389 47.0994C121.471 47.0545 121.534 46.9797 121.572 46.8824Z" fill="white" fill-opacity="0.8"/>
<path d="M0.80075 57.732C0.971213 57.283 0.605031 56.8489 0.226225 57.051C0.144151 57.0959 0.0810304 57.1707 0.0431498 57.268C-0.127313 57.717 0.238849 58.1511 0.617655 57.949C0.69973 57.9041 0.762869 57.8293 0.80075 57.732Z" fill="white" fill-opacity="0.1"/>
<path d="M125.113 94.8961C125.284 94.447 124.918 94.013 124.539 94.215C124.457 94.2599 124.394 94.3348 124.356 94.4321C124.185 94.8811 124.551 95.3152 124.93 95.1131C125.012 95.0682 125.075 94.9934 125.113 94.8961Z" fill="white" fill-opacity="0.1"/>
<path d="M380.117 32.732C380.288 32.283 379.921 31.8489 379.543 32.051C379.461 32.0959 379.397 32.1707 379.36 32.268C379.189 32.717 379.555 33.1511 379.934 32.949C380.016 32.9041 380.079 32.8293 380.117 32.732Z" fill="white" fill-opacity="0.1"/>
<path d="M400.998 427.298C401.174 426.849 400.803 426.415 400.425 426.617C400.343 426.662 400.28 426.737 400.242 426.834C400.072 427.283 400.437 427.717 400.815 427.515C400.897 427.471 400.96 427.396 400.998 427.298V427.298Z" fill="white" fill-opacity="0.1"/>
<path d="M941.418 413.732C941.588 413.283 941.222 412.849 940.843 413.051C940.761 413.096 940.698 413.171 940.66 413.268C940.49 413.717 940.856 414.151 941.235 413.949C941.317 413.904 941.38 413.829 941.418 413.732Z" fill="white" fill-opacity="0.1"/>
<path d="M674.57 68.1812C674.74 67.7322 674.375 67.2981 673.997 67.5002C673.916 67.5451 673.853 67.6199 673.815 67.7172C673.639 68.1662 674.01 68.6003 674.388 68.3982C674.47 68.3533 674.533 68.2785 674.57 68.1812Z" fill="white" fill-opacity="0.1"/>
<path d="M708.642 38.3609C708.819 37.9119 708.447 37.4778 708.069 37.6799C707.988 37.7248 707.925 37.7996 707.887 37.8969C707.717 38.3459 708.082 38.78 708.46 38.5779C708.542 38.533 708.605 38.4582 708.642 38.3609Z" fill="white" fill-opacity="0.1"/>
<path d="M154.336 232.732C154.506 232.283 154.141 231.849 153.763 232.051C153.681 232.096 153.618 232.171 153.58 232.268C153.404 232.717 153.776 233.151 154.153 232.949C154.235 232.904 154.298 232.829 154.336 232.732Z" fill="white" fill-opacity="0.1"/>
<path d="M364.082 86.6265C364.252 86.1775 363.886 85.7434 363.507 85.9455C363.425 85.9904 363.362 86.0652 363.324 86.1625C363.154 86.6116 363.52 87.0456 363.899 86.8436C363.981 86.7987 364.044 86.7238 364.082 86.6265Z" fill="white" fill-opacity="0.1"/>
<path d="M754.814 314.203C754.991 313.754 754.619 313.32 754.241 313.522C754.159 313.567 754.096 313.641 754.059 313.739C753.889 314.188 754.254 314.622 754.632 314.42C754.713 314.375 754.776 314.3 754.814 314.203Z" fill="white" fill-opacity="0.1"/>
<path d="M936.353 260.732C936.53 260.283 936.158 259.849 935.78 260.051C935.698 260.096 935.636 260.171 935.598 260.268C935.428 260.717 935.793 261.151 936.171 260.949C936.253 260.904 936.316 260.829 936.353 260.732Z" fill="white" fill-opacity="0.8"/>
<path d="M946.535 203.244C946.706 202.795 946.339 202.361 945.961 202.563C945.879 202.608 945.815 202.682 945.778 202.78C945.607 203.229 945.973 203.663 946.352 203.461C946.434 203.416 946.497 203.341 946.535 203.244Z" fill="white" fill-opacity="0.1"/>
<path d="M304.582 167.732C304.412 167.283 304.778 166.849 305.157 167.051C305.239 167.096 305.302 167.171 305.34 167.268C305.51 167.717 305.144 168.151 304.765 167.949C304.683 167.904 304.62 167.829 304.582 167.732Z" fill="white" fill-opacity="0.1"/>
<path d="M573.692 373.732C573.521 373.283 573.887 372.849 574.266 373.051C574.348 373.096 574.411 373.171 574.449 373.268C574.62 373.717 574.253 374.151 573.875 373.949C573.793 373.904 573.729 373.829 573.692 373.732Z" fill="white" fill-opacity="0.1"/>
<path d="M254.813 358.709C254.643 358.26 255.008 357.825 255.386 358.028C255.467 358.072 255.53 358.147 255.568 358.245C255.744 358.694 255.373 359.128 254.995 358.926C254.913 358.881 254.85 358.806 254.813 358.709Z" fill="white" fill-opacity="0.1"/>
<path d="M494.395 375.732C494.224 375.283 494.59 374.849 494.969 375.051C495.051 375.096 495.114 375.171 495.152 375.268C495.323 375.717 494.957 376.151 494.578 375.949C494.496 375.904 494.433 375.829 494.395 375.732Z" fill="white" fill-opacity="0.1"/>
<path d="M603.219 389.73C603.049 389.282 603.414 388.849 603.792 389.051C603.874 389.096 603.937 389.17 603.974 389.267C604.151 389.715 603.779 390.155 603.401 389.946C603.32 389.902 603.257 389.827 603.219 389.73Z" fill="white" fill-opacity="0.1"/>
<path d="M219.301 272.794C219.131 272.345 219.496 271.911 219.874 272.113C219.956 272.158 220.019 272.233 220.056 272.331C220.233 272.78 219.861 273.214 219.483 273.012C219.402 272.967 219.339 272.892 219.301 272.794Z" fill="white" fill-opacity="0.1"/>
<path d="M171.476 110.054C171.855 109.845 172.221 110.285 172.051 110.733C172.013 110.83 171.95 110.904 171.868 110.949C171.489 111.151 171.123 110.718 171.293 110.27C171.331 110.173 171.394 110.098 171.476 110.054Z" fill="white" fill-opacity="0.1"/>
<path d="M96.2149 260.974C96.0449 260.525 96.4101 260.091 96.7879 260.293C96.8697 260.338 96.9327 260.413 96.9705 260.51C97.1468 260.959 96.7753 261.393 96.3975 261.191C96.3156 261.146 96.2527 261.071 96.2149 260.974Z" fill="white" fill-opacity="0.1"/>
<path d="M775.557 31.9C775.381 31.4509 775.752 31.0169 776.13 31.2189C776.212 31.2638 776.275 31.3387 776.313 31.436C776.483 31.885 776.117 32.3191 775.74 32.117C775.658 32.0721 775.595 31.9973 775.557 31.9Z" fill="white" fill-opacity="0.8"/>
<path d="M872.752 301.188C872.576 300.74 872.948 300.3 873.325 300.509C873.407 300.553 873.47 300.628 873.508 300.725C873.678 301.173 873.313 301.606 872.935 301.404C872.853 301.359 872.79 301.285 872.752 301.188Z" fill="white" fill-opacity="0.1"/>
<path d="M903.776 345.701C903.599 345.252 903.971 344.818 904.349 345.02C904.431 345.065 904.494 345.139 904.531 345.237C904.701 345.686 904.336 346.12 903.958 345.918C903.876 345.873 903.814 345.798 903.776 345.701Z" fill="white" fill-opacity="0.8"/>
<path d="M980.309 126.732C980.139 126.283 980.504 125.849 980.882 126.051C980.963 126.096 981.026 126.171 981.064 126.268C981.241 126.717 980.869 127.151 980.491 126.949C980.409 126.904 980.346 126.829 980.309 126.732Z" fill="white" fill-opacity="0.1"/>
<path d="M960.428 98.4039C960.252 97.9548 960.623 97.5208 961.001 97.7228C961.083 97.7677 961.146 97.8426 961.184 97.9399C961.354 98.3889 960.988 98.823 960.611 98.6209C960.529 98.576 960.466 98.5012 960.428 98.4039Z" fill="white" fill-opacity="0.8"/>
<path d="M901.854 233.732C901.678 233.283 902.049 232.849 902.427 233.051C902.509 233.096 902.572 233.171 902.609 233.268C902.779 233.717 902.414 234.151 902.036 233.949C901.955 233.904 901.892 233.829 901.854 233.732Z" fill="white" fill-opacity="0.1"/>
<path d="M642.867 0.732002C642.697 0.282973 643.062 -0.151092 643.44 0.0509715C643.522 0.0958745 643.585 0.170708 643.623 0.267997C643.799 0.717027 643.428 1.15109 643.05 0.949028C642.968 0.904125 642.905 0.829292 642.867 0.732002Z" fill="white" fill-opacity="0.1"/>
<path d="M622.926 11.2086C622.755 10.7595 623.122 10.3255 623.5 10.5275C623.583 10.5724 623.646 10.6473 623.684 10.7446C623.854 11.1936 623.488 11.6277 623.109 11.4256C623.027 11.3807 622.964 11.3058 622.926 11.2086Z" fill="white" fill-opacity="0.1"/>
<path d="M157.766 340.73C157.595 340.281 157.962 339.847 158.34 340.049C158.422 340.094 158.486 340.169 158.523 340.266C158.694 340.715 158.328 341.149 157.949 340.947C157.867 340.902 157.804 340.827 157.766 340.73Z" fill="white" fill-opacity="0.1"/>
<path d="M54.8773 217.733C54.701 217.285 55.0725 216.845 55.4503 217.054C55.5321 217.098 55.5951 217.173 55.6329 217.27C55.8029 217.718 55.4377 218.151 55.0599 217.949C54.9781 217.904 54.9151 217.83 54.8773 217.733Z" fill="white" fill-opacity="0.1"/>
<path d="M84.3968 197.154C84.2205 196.705 84.592 196.271 84.9698 196.473C85.0517 196.518 85.1146 196.593 85.1524 196.69C85.3224 197.139 84.9572 197.573 84.5794 197.371C84.4976 197.326 84.4346 197.251 84.3968 197.154Z" fill="white" fill-opacity="0.8"/>
<path d="M232.172 219.882C232.002 219.433 232.367 218.999 232.745 219.201C232.827 219.246 232.89 219.321 232.928 219.418C233.104 219.867 232.732 220.301 232.355 220.099C232.273 220.055 232.21 219.98 232.172 219.882Z" fill="white" fill-opacity="0.1"/>
<path d="M19.4454 112.732C19.2754 112.283 19.6406 111.849 20.0184 112.051C20.1002 112.096 20.1632 112.171 20.201 112.268C20.3773 112.717 20.0058 113.151 19.628 112.949C19.5461 112.904 19.4832 112.829 19.4454 112.732Z" fill="white" fill-opacity="0.1"/>
<path d="M997.121 170.689C996.951 170.24 997.316 169.806 997.694 170.008C997.776 170.053 997.839 170.128 997.877 170.225C998.053 170.674 997.682 171.108 997.304 170.906C997.222 170.861 997.159 170.786 997.121 170.689Z" fill="white" fill-opacity="0.1"/>
<path d="M1035.16 136.181C1034.78 136.384 1034.42 135.949 1034.59 135.5C1034.62 135.403 1034.69 135.328 1034.77 135.283C1035.15 135.081 1035.51 135.515 1035.34 135.964C1035.31 136.062 1035.24 136.137 1035.16 136.181Z" fill="white" fill-opacity="0.8"/>
<path d="M1014.63 103.946C1014.25 104.155 1013.88 103.715 1014.05 103.267C1014.09 103.17 1014.15 103.096 1014.23 103.051C1014.61 102.849 1014.98 103.282 1014.81 103.73C1014.77 103.827 1014.71 103.902 1014.63 103.946Z" fill="white" fill-opacity="0.1"/>
<path d="M684.059 19.1617C683.888 18.7126 684.254 18.2786 684.633 18.4807C684.715 18.5256 684.778 18.6004 684.816 18.6977C684.987 19.1467 684.621 19.5808 684.242 19.3787C684.16 19.3338 684.097 19.259 684.059 19.1617Z" fill="white" fill-opacity="0.1"/>
<path d="M177.426 204.64C177.256 204.191 177.621 203.757 177.999 203.959C178.081 204.004 178.144 204.079 178.181 204.176C178.358 204.625 177.986 205.059 177.608 204.857C177.527 204.812 177.464 204.737 177.426 204.64Z" fill="white" fill-opacity="0.1"/>
<path d="M426.906 11.732C426.736 11.283 427.102 10.8489 427.481 11.051C427.563 11.0959 427.626 11.1707 427.664 11.268C427.834 11.717 427.468 12.1511 427.09 11.949C427.007 11.9041 426.944 11.8293 426.906 11.732Z" fill="white" fill-opacity="0.1"/>
<path d="M382.488 69.73C382.318 69.281 382.684 68.847 383.061 69.049C383.143 69.0939 383.206 69.1688 383.244 69.266C383.42 69.7151 383.049 70.1491 382.671 69.9471C382.589 69.9022 382.526 69.8273 382.488 69.73Z" fill="white" fill-opacity="0.1"/>
<path d="M462.067 70.0133C461.896 69.5642 462.262 69.1302 462.641 69.3322C462.723 69.3771 462.786 69.452 462.824 69.5492C462.995 69.9983 462.628 70.4323 462.25 70.2303C462.168 70.1854 462.104 70.1105 462.067 70.0133Z" fill="white" fill-opacity="0.1"/>
<path d="M323.586 362.529C323.416 362.08 323.782 361.646 324.161 361.848C324.243 361.893 324.306 361.968 324.344 362.065C324.514 362.514 324.148 362.948 323.769 362.746C323.687 362.701 323.624 362.626 323.586 362.529Z" fill="white" fill-opacity="0.1"/>
<path d="M898.061 367.714C897.885 367.265 898.256 366.831 898.634 367.033C898.716 367.078 898.779 367.153 898.816 367.25C898.986 367.699 898.621 368.134 898.244 367.931C898.162 367.887 898.099 367.812 898.061 367.714Z" fill="white" fill-opacity="0.8"/>
<path d="M467.399 386.732C467.228 386.283 467.594 385.849 467.973 386.051C468.055 386.096 468.118 386.171 468.156 386.268C468.327 386.717 467.961 387.151 467.582 386.949C467.5 386.904 467.436 386.829 467.399 386.732Z" fill="white" fill-opacity="0.1"/>
<path d="M524.762 415.732C524.591 415.283 524.958 414.849 525.336 415.051C525.418 415.096 525.482 415.171 525.519 415.268C525.69 415.717 525.324 416.151 524.945 415.949C524.863 415.904 524.8 415.829 524.762 415.732Z" fill="white" fill-opacity="0.8"/>
<path d="M627.328 347.494C627.158 347.045 627.524 346.611 627.903 346.813C627.985 346.858 628.048 346.932 628.086 347.03C628.256 347.479 627.89 347.913 627.511 347.711C627.429 347.666 627.366 347.591 627.328 347.494Z" fill="white" fill-opacity="0.8"/>
<path d="M423.531 391.732C423.361 391.283 423.727 390.849 424.106 391.051C424.188 391.096 424.251 391.171 424.289 391.268C424.459 391.717 424.093 392.151 423.715 391.949C423.632 391.904 423.569 391.829 423.531 391.732Z" fill="white" fill-opacity="0.8"/>
<path d="M458.117 426.732C457.947 426.283 458.312 425.849 458.69 426.051C458.772 426.096 458.835 426.171 458.873 426.268C459.049 426.717 458.678 427.151 458.3 426.949C458.218 426.904 458.155 426.829 458.117 426.732V426.732Z" fill="white" fill-opacity="0.1"/>
<path d="M226.973 84.732C226.803 84.283 227.168 83.8489 227.546 84.051C227.628 84.0959 227.691 84.1707 227.728 84.268C227.905 84.717 227.533 85.1511 227.155 84.949C227.073 84.9041 227.01 84.8293 226.973 84.732Z" fill="white" fill-opacity="0.1"/>
<path d="M723.297 353.716C723.127 353.267 723.492 352.833 723.87 353.035C723.952 353.08 724.015 353.155 724.053 353.252C724.229 353.701 723.857 354.135 723.48 353.933C723.398 353.889 723.335 353.814 723.297 353.716Z" fill="white" fill-opacity="0.1"/>
<path d="M694.237 340.97C694.06 340.521 694.432 340.087 694.81 340.289C694.892 340.334 694.954 340.409 694.992 340.506C695.162 340.955 694.797 341.389 694.419 341.187C694.337 341.142 694.274 341.068 694.237 340.97Z" fill="white" fill-opacity="0.1"/>
<path d="M841.959 160.733C841.783 160.285 842.155 159.845 842.532 160.054C842.614 160.098 842.677 160.173 842.715 160.27C842.885 160.718 842.52 161.151 842.142 160.949C842.06 160.904 841.997 160.83 841.959 160.733Z" fill="white" fill-opacity="0.1"/>
<path d="M784.289 58.2398C784.119 57.7908 784.485 57.3567 784.864 57.5588C784.946 57.6037 785.009 57.6785 785.047 57.7758C785.217 58.2248 784.851 58.6589 784.472 58.4568C784.39 58.4119 784.327 58.3371 784.289 58.2398Z" fill="white" fill-opacity="0.8"/>
<path d="M739.883 71.732C739.713 71.283 740.078 70.8489 740.456 71.051C740.538 71.0959 740.601 71.1707 740.638 71.268C740.815 71.717 740.443 72.1511 740.065 71.949C739.984 71.9041 739.921 71.8293 739.883 71.732Z" fill="white" fill-opacity="0.1"/>
<path d="M800.488 353.396C800.318 352.947 800.684 352.513 801.063 352.715C801.145 352.76 801.208 352.835 801.246 352.932C801.417 353.381 801.05 353.815 800.672 353.613C800.589 353.568 800.526 353.493 800.488 353.396Z" fill="white" fill-opacity="0.1"/>
<path d="M789.162 93.5914C788.986 93.1423 789.358 92.7083 789.735 92.9103C789.817 92.9552 789.88 93.0301 789.918 93.1274C790.088 93.5764 789.723 94.0105 789.345 93.8084C789.263 93.7635 789.2 93.6887 789.162 93.5914Z" fill="white" fill-opacity="0.1"/>
<path d="M836.895 54.7301C836.725 54.2822 837.09 53.8493 837.468 54.0508C837.549 54.0956 837.612 54.1703 837.65 54.2673C837.826 54.7151 837.455 55.1555 837.077 54.9465C836.995 54.9017 836.932 54.8271 836.895 54.7301Z" fill="white" fill-opacity="0.1"/>
<path d="M876.168 243.996C875.998 243.547 876.363 243.113 876.741 243.315C876.823 243.36 876.886 243.434 876.924 243.532C877.1 243.981 876.728 244.415 876.351 244.213C876.269 244.168 876.206 244.093 876.168 243.996Z" fill="white" fill-opacity="0.1"/>
<path d="M854.406 196.253C854.236 195.804 854.602 195.37 854.981 195.572C855.063 195.617 855.126 195.692 855.164 195.789C855.334 196.239 854.968 196.673 854.59 196.471C854.507 196.426 854.444 196.351 854.406 196.253Z" fill="white" fill-opacity="0.1"/>
<path d="M949.94 310.732C949.764 310.283 950.135 309.849 950.513 310.051C950.595 310.096 950.658 310.171 950.695 310.268C950.865 310.717 950.5 311.151 950.122 310.949C950.041 310.904 949.978 310.829 949.94 310.732Z" fill="white" fill-opacity="0.1"/>
<path d="M835.207 271.732C835.037 271.283 835.402 270.849 835.78 271.051C835.862 271.096 835.925 271.171 835.963 271.268C836.139 271.717 835.767 272.151 835.39 271.949C835.308 271.904 835.245 271.829 835.207 271.732Z" fill="white" fill-opacity="0.1"/>
<path d="M975.844 279.412C975.674 278.963 976.039 278.529 976.417 278.731C976.499 278.776 976.562 278.85 976.599 278.948C976.776 279.397 976.404 279.831 976.026 279.629C975.945 279.584 975.882 279.509 975.844 279.412Z" fill="white" fill-opacity="0.1"/>
<path d="M173.695 279.488C173.525 279.039 173.891 278.605 174.268 278.807C174.35 278.852 174.413 278.927 174.451 279.024C174.627 279.473 174.256 279.907 173.878 279.705C173.796 279.66 173.733 279.585 173.695 279.488Z" fill="white" fill-opacity="0.1"/>
<path d="M842.942 357.773C842.771 357.324 843.137 356.89 843.516 357.092C843.598 357.137 843.661 357.212 843.699 357.309C843.87 357.758 843.503 358.192 843.125 357.99C843.043 357.945 842.979 357.87 842.942 357.773Z" fill="white" fill-opacity="0.1"/>
<path d="M641.18 386.732C641.009 386.283 641.376 385.849 641.754 386.051C641.836 386.096 641.9 386.171 641.937 386.268C642.108 386.717 641.742 387.151 641.363 386.949C641.281 386.904 641.218 386.829 641.18 386.732Z" fill="white" fill-opacity="0.1"/>
<path d="M830.026 405.91C829.849 405.461 830.221 405.027 830.599 405.229C830.681 405.274 830.744 405.348 830.781 405.446C830.951 405.895 830.586 406.329 830.208 406.127C830.126 406.082 830.064 406.007 830.026 405.91Z" fill="white" fill-opacity="0.8"/>
<path d="M720.517 103.732C720.694 103.283 720.322 102.849 719.944 103.051C719.863 103.096 719.8 103.171 719.762 103.268C719.592 103.717 719.957 104.151 720.335 103.949C720.417 103.904 720.48 103.829 720.517 103.732Z" fill="white" fill-opacity="0.8"/>
<path d="M822.594 204.732C822.764 204.283 822.398 203.849 822.019 204.051C821.937 204.096 821.874 204.171 821.836 204.268C821.666 204.717 822.032 205.151 822.411 204.949C822.493 204.904 822.556 204.829 822.594 204.732Z" fill="white" fill-opacity="0.1"/>
<path d="M784.955 136.701C784.779 136.252 785.151 135.818 785.528 136.02C785.61 136.065 785.673 136.139 785.711 136.237C785.881 136.686 785.516 137.12 785.138 136.918C785.056 136.873 784.993 136.798 784.955 136.701Z" fill="white" fill-opacity="0.8"/>
<path d="M779.241 158.714C779.064 158.265 779.436 157.831 779.814 158.033C779.895 158.078 779.958 158.153 779.996 158.25C780.166 158.699 779.801 159.134 779.423 158.931C779.341 158.887 779.278 158.812 779.241 158.714Z" fill="white" fill-opacity="0.8"/>
<path d="M831.12 101.732C830.943 101.283 831.315 100.849 831.692 101.051C831.774 101.096 831.837 101.171 831.875 101.268C832.045 101.717 831.68 102.151 831.302 101.949C831.22 101.904 831.157 101.829 831.12 101.732Z" fill="white" fill-opacity="0.1"/>
<path d="M724.121 148.773C723.951 148.324 724.317 147.89 724.696 148.092C724.778 148.137 724.841 148.212 724.879 148.309C725.049 148.758 724.683 149.192 724.304 148.99C724.222 148.945 724.159 148.87 724.121 148.773Z" fill="white" fill-opacity="0.1"/>
<path d="M711.202 196.91C711.025 196.461 711.397 196.027 711.775 196.229C711.856 196.274 711.919 196.348 711.957 196.446C712.127 196.895 711.762 197.329 711.384 197.127C711.302 197.082 711.239 197.007 711.202 196.91Z" fill="white" fill-opacity="0.8"/>
<path d="M783.057 291.744C782.881 291.295 783.252 290.861 783.63 291.063C783.712 291.108 783.775 291.182 783.813 291.28C783.983 291.729 783.617 292.163 783.24 291.961C783.158 291.916 783.095 291.841 783.057 291.744Z" fill="white" fill-opacity="0.1"/>
<path d="M999.559 234.99C999.389 234.541 999.754 234.107 1000.13 234.309C1000.21 234.354 1000.28 234.429 1000.31 234.526C1000.49 234.975 1000.12 235.409 999.741 235.207C999.659 235.162 999.596 235.087 999.559 234.99Z" fill="white" fill-opacity="0.1"/>
<path d="M1067.77 76.9465C1067.4 77.1555 1067.03 76.7151 1067.2 76.2673C1067.24 76.1703 1067.3 76.0956 1067.38 76.0508C1067.76 75.8493 1068.13 76.2822 1067.96 76.73C1067.92 76.8271 1067.86 76.9017 1067.77 76.9465Z" fill="white" fill-opacity="0.1"/>
<path d="M654.859 140.732C655.03 140.283 654.664 139.849 654.285 140.051C654.203 140.096 654.14 140.171 654.102 140.268C653.931 140.717 654.297 141.151 654.676 140.949C654.758 140.904 654.821 140.829 654.859 140.732Z" fill="white" fill-opacity="0.8"/>
<path d="M638.095 272.599C638.272 272.15 637.9 271.716 637.523 271.918C637.441 271.963 637.378 272.038 637.34 272.135C637.17 272.584 637.535 273.018 637.913 272.816C637.995 272.771 638.058 272.696 638.095 272.599Z" fill="white" fill-opacity="0.1"/>
<path d="M601.535 149.962C601.705 149.513 601.34 149.079 600.962 149.281C600.88 149.326 600.817 149.401 600.78 149.498C600.603 149.947 600.975 150.382 601.353 150.179C601.434 150.135 601.497 150.06 601.535 149.962Z" fill="white" fill-opacity="0.1"/>
<path d="M664.98 179.732C665.151 179.283 664.785 178.849 664.406 179.051C664.324 179.096 664.261 179.171 664.223 179.268C664.052 179.717 664.419 180.151 664.797 179.949C664.879 179.904 664.943 179.829 664.98 179.732Z" fill="white" fill-opacity="0.1"/>
<path d="M454.658 238.732C454.834 238.283 454.463 237.849 454.085 238.051C454.003 238.096 453.94 238.171 453.902 238.268C453.732 238.717 454.098 239.151 454.475 238.949C454.557 238.904 454.62 238.829 454.658 238.732Z" fill="white" fill-opacity="0.1"/>
<path d="M597.49 310.732C597.666 310.283 597.295 309.849 596.917 310.051C596.835 310.096 596.772 310.171 596.734 310.268C596.564 310.717 596.93 311.151 597.307 310.949C597.389 310.904 597.452 310.829 597.49 310.732Z" fill="white" fill-opacity="0.1"/>
<path d="M730.785 327.732C730.955 327.283 730.59 326.849 730.212 327.051C730.13 327.096 730.067 327.171 730.03 327.268C729.853 327.717 730.225 328.151 730.603 327.949C730.684 327.904 730.747 327.829 730.785 327.732Z" fill="white" fill-opacity="0.1"/>
<path d="M415.275 142.732C415.451 142.283 415.08 141.849 414.702 142.051C414.62 142.096 414.557 142.171 414.52 142.268C414.35 142.717 414.715 143.151 415.093 142.949C415.174 142.904 415.237 142.829 415.275 142.732Z" fill="white" fill-opacity="0.8"/>
<path d="M411.043 276.755C411.213 276.306 410.848 275.872 410.47 276.074C410.388 276.119 410.325 276.194 410.287 276.291C410.111 276.74 410.483 277.175 410.86 276.972C410.942 276.928 411.005 276.853 411.043 276.755Z" fill="white" fill-opacity="0.1"/>
<path d="M564.613 159.168C564.783 158.72 564.418 158.287 564.04 158.488C563.959 158.533 563.896 158.608 563.858 158.705C563.681 159.153 564.053 159.593 564.431 159.384C564.513 159.339 564.576 159.265 564.613 159.168Z" fill="white" fill-opacity="0.1"/>
<path d="M506.469 341.22C506.639 340.771 506.274 340.337 505.896 340.539C505.814 340.584 505.751 340.659 505.713 340.756C505.537 341.205 505.908 341.639 506.286 341.437C506.368 341.392 506.431 341.318 506.469 341.22Z" fill="white" fill-opacity="0.1"/>
<path d="M669.016 212.054C668.637 211.845 668.271 212.285 668.442 212.733C668.479 212.83 668.543 212.904 668.625 212.949C669.003 213.151 669.37 212.718 669.199 212.27C669.161 212.173 669.098 212.098 669.016 212.054Z" fill="white" fill-opacity="0.1"/>
<path d="M364.395 202.181C364.565 201.732 364.199 201.298 363.822 201.5C363.74 201.545 363.677 201.62 363.639 201.717C363.463 202.166 363.834 202.6 364.212 202.398C364.294 202.353 364.357 202.278 364.395 202.181Z" fill="white" fill-opacity="0.1"/>
<path d="M398.463 172.361C398.639 171.912 398.267 171.478 397.89 171.68C397.808 171.725 397.745 171.8 397.707 171.897C397.537 172.346 397.902 172.78 398.28 172.578C398.362 172.533 398.425 172.458 398.463 172.361Z" fill="white" fill-opacity="0.1"/>
<path d="M636.355 337.244C636.526 336.795 636.16 336.361 635.781 336.563C635.699 336.608 635.636 336.682 635.598 336.78C635.427 337.229 635.794 337.663 636.172 337.461C636.254 337.416 636.318 337.341 636.355 337.244Z" fill="white" fill-opacity="0.1"/>
<path d="M465.377 165.9C465.201 165.451 465.573 165.017 465.95 165.219C466.032 165.264 466.095 165.339 466.133 165.436C466.303 165.885 465.938 166.319 465.56 166.117C465.478 166.072 465.415 165.997 465.377 165.9Z" fill="white" fill-opacity="0.8"/>
<path d="M670.129 260.732C669.959 260.283 670.324 259.849 670.702 260.051C670.784 260.096 670.847 260.171 670.885 260.268C671.061 260.717 670.689 261.151 670.312 260.949C670.23 260.904 670.167 260.829 670.129 260.732Z" fill="white" fill-opacity="0.1"/>
<path d="M650.248 232.404C650.072 231.955 650.444 231.521 650.821 231.723C650.903 231.768 650.966 231.843 651.004 231.94C651.174 232.389 650.809 232.823 650.431 232.621C650.349 232.576 650.286 232.501 650.248 232.404Z" fill="white" fill-opacity="0.8"/>
<path d="M686.941 304.689C686.771 304.24 687.137 303.806 687.514 304.008C687.596 304.053 687.659 304.128 687.697 304.225C687.873 304.674 687.502 305.108 687.124 304.906C687.042 304.861 686.979 304.786 686.941 304.689Z" fill="white" fill-opacity="0.1"/>
<path d="M724.981 270.181C724.602 270.384 724.236 269.949 724.406 269.5C724.444 269.403 724.507 269.328 724.59 269.283C724.968 269.081 725.334 269.515 725.164 269.964C725.126 270.062 725.063 270.137 724.981 270.181Z" fill="white" fill-opacity="0.8"/>
<path d="M704.45 237.946C704.071 238.155 703.705 237.715 703.875 237.267C703.913 237.17 703.976 237.096 704.058 237.051C704.437 236.849 704.803 237.282 704.633 237.73C704.595 237.827 704.532 237.902 704.45 237.946Z" fill="white" fill-opacity="0.1"/>
<path d="M373.879 153.162C373.709 152.713 374.075 152.279 374.454 152.481C374.536 152.526 374.599 152.6 374.637 152.698C374.807 153.147 374.441 153.581 374.062 153.379C373.98 153.334 373.917 153.259 373.879 153.162Z" fill="white" fill-opacity="0.1"/>
<path d="M531.78 294.733C531.603 294.285 531.975 293.845 532.353 294.054C532.434 294.098 532.497 294.173 532.535 294.27C532.705 294.718 532.34 295.151 531.962 294.949C531.88 294.904 531.817 294.83 531.78 294.733Z" fill="white" fill-opacity="0.1"/>
<path d="M474.11 192.24C473.939 191.791 474.305 191.357 474.684 191.559C474.766 191.604 474.829 191.679 474.867 191.776C475.038 192.225 474.671 192.659 474.293 192.457C474.211 192.412 474.147 192.337 474.11 192.24Z" fill="white" fill-opacity="0.8"/>
<path d="M429.703 205.732C429.533 205.283 429.898 204.849 430.276 205.051C430.358 205.096 430.421 205.171 430.459 205.268C430.635 205.717 430.264 206.151 429.886 205.949C429.804 205.904 429.741 205.829 429.703 205.732Z" fill="white" fill-opacity="0.1"/>
<path d="M478.987 227.591C478.81 227.142 479.182 226.708 479.56 226.91C479.642 226.955 479.704 227.03 479.742 227.127C479.912 227.576 479.547 228.01 479.169 227.808C479.087 227.763 479.024 227.689 478.987 227.591Z" fill="white" fill-opacity="0.1"/>
<path d="M385.57 223.73C385.4 223.282 385.766 222.849 386.143 223.051C386.225 223.096 386.288 223.17 386.326 223.267C386.502 223.715 386.131 224.155 385.753 223.946C385.671 223.902 385.608 223.827 385.57 223.73Z" fill="white" fill-opacity="0.1"/>
<path d="M544.231 330.253C544.06 329.804 544.426 329.37 544.805 329.572C544.887 329.617 544.95 329.692 544.988 329.789C545.159 330.239 544.793 330.673 544.414 330.471C544.332 330.426 544.269 330.351 544.231 330.253Z" fill="white" fill-opacity="0.1"/>
<path d="M757.594 210.946C757.215 211.155 756.849 210.715 757.02 210.267C757.058 210.17 757.121 210.096 757.203 210.051C757.582 209.849 757.948 210.282 757.777 210.73C757.739 210.827 757.676 210.902 757.594 210.946Z" fill="white" fill-opacity="0.1"/>
<path d="M192.385 244.732C192.209 244.283 192.58 243.849 192.958 244.051C193.04 244.096 193.103 244.171 193.141 244.268C193.311 244.717 192.946 245.151 192.568 244.949C192.486 244.904 192.423 244.829 192.385 244.732Z" fill="white" fill-opacity="0.1"/>
<path d="M365.327 390.732C365.15 390.283 365.522 389.849 365.9 390.051C365.981 390.096 366.044 390.171 366.082 390.268C366.252 390.717 365.887 391.151 365.509 390.949C365.427 390.904 365.364 390.829 365.327 390.732Z" fill="white" fill-opacity="0.1"/>
<path d="M283.495 385.732C283.318 385.283 283.69 384.849 284.067 385.051C284.149 385.096 284.212 385.171 284.25 385.268C284.42 385.717 284.055 386.151 283.677 385.949C283.595 385.904 283.532 385.829 283.495 385.732Z" fill="white" fill-opacity="0.8"/>
<path d="M361.952 353.732C361.775 353.283 362.147 352.849 362.525 353.051C362.606 353.096 362.669 353.171 362.707 353.268C362.877 353.717 362.512 354.151 362.134 353.949C362.052 353.904 361.989 353.829 361.952 353.732Z" fill="white" fill-opacity="0.1"/>
<path d="M263.385 273.882C263.209 273.433 263.58 272.999 263.958 273.201C264.04 273.246 264.103 273.321 264.141 273.418C264.311 273.867 263.946 274.301 263.568 274.099C263.486 274.055 263.423 273.98 263.385 273.882Z" fill="white" fill-opacity="0.1"/>
<path d="M361.002 271.8C360.826 271.351 361.198 270.917 361.575 271.119C361.657 271.164 361.72 271.239 361.758 271.336C361.928 271.785 361.563 272.219 361.185 272.017C361.103 271.972 361.04 271.898 361.002 271.8Z" fill="white" fill-opacity="0.1"/>
<path d="M304.188 332.127C304.017 331.678 304.383 331.243 304.762 331.446C304.844 331.49 304.907 331.565 304.945 331.663C305.116 332.112 304.75 332.546 304.371 332.344C304.289 332.299 304.226 332.224 304.188 332.127Z" fill="white" fill-opacity="0.1"/>
<path d="M609.883 42.732C610.053 42.283 609.688 41.8489 609.31 42.051C609.228 42.0959 609.165 42.1707 609.127 42.268C608.951 42.717 609.323 43.1511 609.7 42.949C609.782 42.9041 609.845 42.8293 609.883 42.732Z" fill="white" fill-opacity="0.1"/>
<path d="M584.574 131.732C584.744 131.283 584.379 130.849 584.001 131.051C583.919 131.096 583.857 131.171 583.819 131.268C583.642 131.717 584.014 132.151 584.392 131.949C584.474 131.904 584.537 131.829 584.574 131.732Z" fill="white" fill-opacity="0.8"/>
<path d="M504.516 84.7086C504.346 84.2595 504.711 83.8255 505.089 84.0275C505.171 84.0724 505.233 84.1473 505.271 84.2446C505.448 84.6936 505.076 85.1277 504.698 84.9256C504.616 84.8807 504.553 84.8058 504.516 84.7086Z" fill="white" fill-opacity="0.1"/>
<path d="M573.293 88.5289C573.123 88.0798 573.489 87.6458 573.868 87.8478C573.95 87.8927 574.013 87.9676 574.051 88.0649C574.221 88.5139 573.855 88.948 573.476 88.7459C573.394 88.701 573.331 88.6262 573.293 88.5289Z" fill="white" fill-opacity="0.1"/>
<path d="M615.03 116.732C614.853 116.283 615.225 115.849 615.603 116.051C615.684 116.096 615.747 116.171 615.785 116.268C615.955 116.717 615.59 117.151 615.212 116.949C615.13 116.904 615.067 116.829 615.03 116.732Z" fill="white" fill-opacity="0.1"/>
<path d="M533.202 111.732C533.025 111.283 533.397 110.849 533.775 111.051C533.856 111.096 533.919 111.171 533.957 111.268C534.127 111.717 533.762 112.151 533.384 111.949C533.302 111.904 533.239 111.829 533.202 111.732Z" fill="white" fill-opacity="0.8"/>
<path d="M611.655 79.732C611.478 79.283 611.85 78.8489 612.228 79.051C612.31 79.0959 612.372 79.1707 612.41 79.268C612.58 79.717 612.215 80.1511 611.837 79.949C611.755 79.9041 611.692 79.8293 611.655 79.732Z" fill="white" fill-opacity="0.1"/>
<path d="M553.895 58.1265C553.724 57.6775 554.09 57.2434 554.469 57.4455C554.551 57.4904 554.614 57.5652 554.652 57.6625C554.823 58.1116 554.457 58.5456 554.078 58.3436C553.996 58.2987 553.933 58.2238 553.895 58.1265Z" fill="white" fill-opacity="0.1"/>
<path d="M168.141 314.265C167.97 313.816 168.337 313.382 168.715 313.584C168.797 313.629 168.861 313.704 168.898 313.801C169.069 314.25 168.703 314.684 168.324 314.482C168.242 314.437 168.179 314.362 168.141 314.265Z" fill="white" fill-opacity="0.8"/>
<path d="M70.0627 77.732C69.8922 77.283 70.2584 76.8489 70.6372 77.051C70.7193 77.0959 70.7824 77.1707 70.8203 77.268C70.9907 77.717 70.6246 78.1511 70.2458 77.949C70.1637 77.9041 70.1006 77.8293 70.0627 77.732Z" fill="white" fill-opacity="0.1"/>
<path d="M274.879 27.7144C274.709 27.2666 275.074 26.8337 275.452 27.0352C275.534 27.08 275.597 27.1546 275.635 27.2517C275.811 27.6995 275.439 28.1399 275.062 27.9309C274.98 27.8861 274.917 27.8114 274.879 27.7144Z" fill="white" fill-opacity="0.1"/>
<path d="M184.309 9.15973C184.138 8.7107 184.504 8.27664 184.883 8.47871C184.965 8.52361 185.028 8.59844 185.066 8.69573C185.237 9.14476 184.871 9.57883 184.492 9.37676C184.41 9.33186 184.347 9.25702 184.309 9.15973Z" fill="white" fill-opacity="0.1"/>
<path d="M183.952 48.732C183.775 48.283 184.147 47.8489 184.525 48.051C184.606 48.0959 184.669 48.1707 184.707 48.268C184.877 48.717 184.512 49.1511 184.134 48.949C184.052 48.9041 183.989 48.8293 183.952 48.732Z" fill="white" fill-opacity="0.1"/>
<path d="M323.987 55.732C323.81 55.283 324.182 54.8489 324.56 55.051C324.642 55.0959 324.704 55.1707 324.742 55.268C324.912 55.717 324.547 56.1511 324.169 55.949C324.087 55.9041 324.024 55.8293 323.987 55.732Z" fill="white" fill-opacity="0.1"/>
<path d="M107.18 144.732C107.009 144.283 107.376 143.849 107.754 144.051C107.836 144.096 107.9 144.171 107.937 144.268C108.108 144.717 107.742 145.151 107.363 144.949C107.281 144.904 107.218 144.829 107.18 144.732Z" fill="white" fill-opacity="0.1"/>
<path d="M63.0743 132.169C62.9043 131.72 63.2695 131.286 63.6473 131.488C63.7291 131.533 63.7921 131.608 63.8299 131.705C64.0062 132.155 63.6347 132.589 63.2569 132.387C63.175 132.342 63.1121 132.267 63.0743 132.169Z" fill="white" fill-opacity="0.1"/>
</svg>
