<svg width="1292" height="913" viewBox="0 0 1292 913" fill="none" xmlns="http://www.w3.org/2000/svg">
<g opacity="0.8">
<path d="M381.385 151.791H303.557V229.619H381.385V151.791Z" fill="url(#paint0_linear_453_747)" fill-opacity="0.02" stroke="url(#paint1_radial_453_747)" stroke-opacity="0.08" stroke-width="1.9457"/>
<path d="M305.502 607.086H227.674V684.914H305.502V607.086Z" fill="url(#paint2_linear_453_747)" fill-opacity="0.02" stroke="url(#paint3_radial_453_747)" stroke-opacity="0.08" stroke-width="1.9457"/>
<path d="M1064.33 227.674H986.498V305.502H1064.33V227.674Z" fill="url(#paint4_linear_453_747)" fill-opacity="0.02" stroke="url(#paint5_radial_453_747)" stroke-opacity="0.08" stroke-width="1.9457"/>
<path d="M76.8824 1H1V76.8823M76.8824 1V76.8823M76.8824 1H152.765M76.8824 76.8823H1M76.8824 76.8823H152.765M76.8824 76.8823V152.765M1 76.8823V152.765M152.765 1V76.8823M152.765 1H228.647M152.765 76.8823H228.647M152.765 76.8823V152.765M228.647 1V76.8823M228.647 1H304.529M228.647 76.8823H304.529M228.647 76.8823V152.765M304.529 1V76.8823M304.529 1H380.412M304.529 76.8823H380.412M304.529 76.8823V152.765M380.412 1V76.8823M380.412 1H456.294M380.412 76.8823H456.294M380.412 76.8823V152.765M456.294 1V76.8823M456.294 1H532.176M456.294 76.8823H532.176M456.294 76.8823V152.765M532.176 1V76.8823M532.176 1H608.059M532.176 76.8823H608.059M532.176 76.8823V152.765M608.059 1V76.8823M608.059 1H683.941M608.059 76.8823H683.941M608.059 76.8823V152.765M683.941 1V76.8823M683.941 1H759.824M683.941 76.8823H759.824M683.941 76.8823V152.765M759.824 1V76.8823M759.824 1H835.706M759.824 76.8823H835.706M759.824 76.8823V152.765M835.706 1V76.8823M835.706 1H911.588M835.706 76.8823H911.588M835.706 76.8823V152.765M911.588 1V76.8823M911.588 1H987.471M911.588 76.8823H987.471M911.588 76.8823V152.765M987.471 1V76.8823M987.471 1H1063.35M987.471 76.8823H1063.35M987.471 76.8823V152.765M1063.35 1V76.8823M1063.35 1H1139.24M1063.35 76.8823H1139.24M1063.35 76.8823V152.765M1139.24 1V76.8823M1139.24 1H1215.12M1139.24 76.8823H1215.12M1139.24 76.8823V152.765M1215.12 1V76.8823M1215.12 1H1291V76.8823M1215.12 76.8823H1291M1215.12 76.8823V152.765M1291 76.8823V152.765M76.8824 152.765H1M76.8824 152.765H152.765M76.8824 152.765V228.647M1 152.765V228.647M152.765 152.765H228.647M152.765 152.765V228.647M228.647 152.765H304.529M228.647 152.765V228.647M304.529 152.765H380.412M304.529 152.765V228.647M380.412 152.765H456.294M380.412 152.765V228.647M456.294 152.765H532.176M456.294 152.765V228.647M532.176 152.765H608.059M532.176 152.765V228.647M608.059 152.765H683.941M608.059 152.765V228.647M683.941 152.765H759.824M683.941 152.765V228.647M759.824 152.765H835.706M759.824 152.765V228.647M835.706 152.765H911.588M835.706 152.765V228.647M911.588 152.765H987.471M911.588 152.765V228.647M987.471 152.765H1063.35M987.471 152.765V228.647M1063.35 152.765H1139.24M1063.35 152.765V228.647M1139.24 152.765H1215.12M1139.24 152.765V228.647M1215.12 152.765H1291M1215.12 152.765V228.647M1291 152.765V228.647M76.8824 228.647H1M76.8824 228.647H152.765M76.8824 228.647V304.529M1 228.647V304.529M152.765 228.647H228.647M152.765 228.647V304.529M228.647 228.647H304.529M228.647 228.647V304.529M304.529 228.647H380.412M304.529 228.647V304.529M380.412 228.647H456.294M380.412 228.647V304.529M456.294 228.647H532.176M456.294 228.647V304.529M532.176 228.647H608.059M532.176 228.647V304.529M608.059 228.647H683.941M608.059 228.647V304.529M683.941 228.647H759.824M683.941 228.647V304.529M759.824 228.647H835.706M759.824 228.647V304.529M835.706 228.647H911.588M835.706 228.647V304.529M911.588 228.647H987.471M911.588 228.647V304.529M987.471 228.647H1063.35M987.471 228.647V304.529M1063.35 228.647H1139.24M1063.35 228.647V304.529M1139.24 228.647H1215.12M1139.24 228.647V304.529M1215.12 228.647H1291M1215.12 228.647V304.529M1291 228.647V304.529M76.8824 304.529H1M76.8824 304.529H152.765M76.8824 304.529V380.412M1 304.529V380.412M152.765 304.529H228.647M152.765 304.529V380.412M228.647 304.529H304.529M228.647 304.529V380.412M304.529 304.529H380.412M304.529 304.529V380.412M380.412 304.529H456.294M380.412 304.529V380.412M456.294 304.529H532.176M456.294 304.529V380.412M532.176 304.529H608.059M532.176 304.529V380.412M608.059 304.529H683.941M608.059 304.529V380.412M683.941 304.529H759.824M683.941 304.529V380.412M759.824 304.529H835.706M759.824 304.529V380.412M835.706 304.529H911.588M835.706 304.529V380.412M911.588 304.529H987.471M911.588 304.529V380.412M987.471 304.529H1063.35M987.471 304.529V380.412M1063.35 304.529H1139.24M1063.35 304.529V380.412M1139.24 304.529H1215.12M1139.24 304.529V380.412M1215.12 304.529H1291M1215.12 304.529V380.412M1291 304.529V380.412M76.8824 380.412H1M76.8824 380.412H152.765M76.8824 380.412V456.294M1 380.412V456.294M152.765 380.412H228.647M152.765 380.412V456.294M228.647 380.412H304.529M228.647 380.412V456.294M304.529 380.412H380.412M304.529 380.412V456.294M380.412 380.412H456.294M380.412 380.412V456.294M456.294 380.412H532.176M456.294 380.412V456.294M532.176 380.412H608.059M532.176 380.412V456.294M608.059 380.412H683.941M608.059 380.412V456.294M683.941 380.412H759.824M683.941 380.412V456.294M759.824 380.412H835.706M759.824 380.412V456.294M835.706 380.412H911.588M835.706 380.412V456.294M911.588 380.412H987.471M911.588 380.412V456.294M987.471 380.412H1063.35M987.471 380.412V456.294M1063.35 380.412H1139.24M1063.35 380.412V456.294M1139.24 380.412H1215.12M1139.24 380.412V456.294M1215.12 380.412H1291M1215.12 380.412V456.294M1291 380.412V456.294M76.8824 456.294H1M76.8824 456.294H152.765M76.8824 456.294V532.176M1 456.294V532.176M152.765 456.294H228.647M152.765 456.294V532.176M228.647 456.294H304.529M228.647 456.294V532.176M304.529 456.294H380.412M304.529 456.294V532.176M380.412 456.294H456.294M380.412 456.294V532.176M456.294 456.294H532.176M456.294 456.294V532.176M532.176 456.294H608.059M532.176 456.294V532.176M608.059 456.294H683.941M608.059 456.294V532.176M683.941 456.294H759.824M683.941 456.294V532.176M759.824 456.294H835.706M759.824 456.294V532.176M835.706 456.294H911.588M835.706 456.294V532.176M911.588 456.294H987.471M911.588 456.294V532.176M987.471 456.294H1063.35M987.471 456.294V532.176M1063.35 456.294H1139.24M1063.35 456.294V532.176M1139.24 456.294H1215.12M1139.24 456.294V532.176M1215.12 456.294H1291M1215.12 456.294V532.176M1291 456.294V532.176M76.8824 532.176H1M76.8824 532.176H152.765M76.8824 532.176V608.059M1 532.176V608.059M152.765 532.176H228.647M152.765 532.176V608.059M228.647 532.176H304.529M228.647 532.176V608.059M304.529 532.176H380.412M304.529 532.176V608.059M380.412 532.176H456.294M380.412 532.176V608.059M456.294 532.176H532.176M456.294 532.176V608.059M532.176 532.176H608.059M532.176 532.176V608.059M608.059 532.176H683.941M608.059 532.176V608.059M683.941 532.176H759.824M683.941 532.176V608.059M759.824 532.176H835.706M759.824 532.176V608.059M835.706 532.176H911.588M835.706 532.176V608.059M911.588 532.176H987.471M911.588 532.176V608.059M987.471 532.176H1063.35M987.471 532.176V608.059M1063.35 532.176H1139.24M1063.35 532.176V608.059M1139.24 532.176H1215.12M1139.24 532.176V608.059M1215.12 532.176H1291M1215.12 532.176V608.059M1291 532.176V608.059M76.8824 608.059H1M76.8824 608.059H152.765M76.8824 608.059V683.941M1 608.059V683.941M152.765 608.059H228.647M152.765 608.059V683.941M228.647 608.059H304.529M228.647 608.059V683.941M304.529 608.059H380.412M304.529 608.059V683.941M380.412 608.059H456.294M380.412 608.059V683.941M456.294 608.059H532.176M456.294 608.059V683.941M532.176 608.059H608.059M532.176 608.059V683.941M608.059 608.059H683.941M608.059 608.059V683.941M683.941 608.059H759.824M683.941 608.059V683.941M759.824 608.059H835.706M759.824 608.059V683.941M835.706 608.059H911.588M835.706 608.059V683.941M911.588 608.059H987.471M911.588 608.059V683.941M987.471 608.059H1063.35M987.471 608.059V683.941M1063.35 608.059H1139.24M1063.35 608.059V683.941M1139.24 608.059H1215.12M1139.24 608.059V683.941M1215.12 608.059H1291M1215.12 608.059V683.941M1291 608.059V683.941M76.8824 683.941H1M76.8824 683.941H152.765M76.8824 683.941V759.823M1 683.941V759.823M152.765 683.941H228.647M152.765 683.941V759.823M228.647 683.941H304.529M228.647 683.941V759.823M304.529 683.941H380.412M304.529 683.941V759.823M380.412 683.941H456.294M380.412 683.941V759.823M456.294 683.941H532.176M456.294 683.941V759.823M532.176 683.941H608.059M532.176 683.941V759.823M608.059 683.941H683.941M608.059 683.941V759.823M683.941 683.941H759.824M683.941 683.941V759.823M759.824 683.941H835.706M759.824 683.941V759.823M835.706 683.941H911.588M835.706 683.941V759.823M911.588 683.941H987.471M911.588 683.941V759.823M987.471 683.941H1063.35M987.471 683.941V759.823M1063.35 683.941H1139.24M1063.35 683.941V759.823M1139.24 683.941H1215.12M1139.24 683.941V759.823M1215.12 683.941H1291M1215.12 683.941V759.823M1291 683.941V759.823M76.8824 759.823H1M76.8824 759.823H152.765M76.8824 759.823V835.706M1 759.823V835.706M152.765 759.823H228.647M152.765 759.823V835.706M228.647 759.823H304.529M228.647 759.823V835.706M304.529 759.823H380.412M304.529 759.823V835.706M380.412 759.823H456.294M380.412 759.823V835.706M456.294 759.823H532.176M456.294 759.823V835.706M532.176 759.823H608.059M532.176 759.823V835.706M608.059 759.823H683.941M608.059 759.823V835.706M683.941 759.823H759.824M683.941 759.823V835.706M759.824 759.823H835.706M759.824 759.823V835.706M835.706 759.823H911.588M835.706 759.823V835.706M911.588 759.823H987.471M911.588 759.823V835.706M987.471 759.823H1063.35M987.471 759.823V835.706M1063.35 759.823H1139.24M1063.35 759.823V835.706M1139.24 759.823H1215.12M1139.24 759.823V835.706M1215.12 759.823H1291M1215.12 759.823V835.706M1291 759.823V835.706M76.8824 835.706H1M76.8824 835.706H152.765M76.8824 835.706V911.588M1 835.706V911.588H76.8824M152.765 835.706H228.647M152.765 835.706V911.588M228.647 835.706H304.529M228.647 835.706V911.588M304.529 835.706H380.412M304.529 835.706V911.588M380.412 835.706H456.294M380.412 835.706V911.588M456.294 835.706H532.176M456.294 835.706V911.588M532.176 835.706H608.059M532.176 835.706V911.588M608.059 835.706H683.941M608.059 835.706V911.588M683.941 835.706H759.824M683.941 835.706V911.588M759.824 835.706H835.706M759.824 835.706V911.588M835.706 835.706H911.588M835.706 835.706V911.588M911.588 835.706H987.471M911.588 835.706V911.588M987.471 835.706H1063.35M987.471 835.706V911.588M1063.35 835.706H1139.24M1063.35 835.706V911.588M1139.24 835.706H1215.12M1139.24 835.706V911.588M1215.12 835.706H1291M1215.12 835.706V911.588M1291 835.706V911.588H1215.12M76.8824 911.588H152.765M152.765 911.588H228.647M228.647 911.588H304.529M304.529 911.588H380.412M380.412 911.588H456.294M456.294 911.588H532.176M532.176 911.588H608.059M608.059 911.588H683.941M683.941 911.588H759.824M759.824 911.588H835.706M835.706 911.588H911.588M911.588 911.588H987.471M987.471 911.588H1063.35M1063.35 911.588H1139.24M1139.24 911.588H1215.12" stroke="url(#paint6_radial_453_747)" stroke-opacity="0.08" stroke-width="1.9457"/>
</g>
<defs>
<linearGradient id="paint0_linear_453_747" x1="342.471" y1="151.791" x2="342.471" y2="229.619" gradientUnits="userSpaceOnUse">
<stop stop-color="white" stop-opacity="0"/>
<stop offset="1" stop-color="white"/>
</linearGradient>
<radialGradient id="paint1_radial_453_747" cx="0" cy="0" r="1" gradientUnits="userSpaceOnUse" gradientTransform="translate(342.471 192.784) rotate(90) scale(36.7521 38.9727)">
<stop stop-color="#FCD535"/>
<stop offset="1" stop-color="white" stop-opacity="0"/>
</radialGradient>
<linearGradient id="paint2_linear_453_747" x1="266.588" y1="607.086" x2="266.588" y2="684.914" gradientUnits="userSpaceOnUse">
<stop stop-color="white" stop-opacity="0"/>
<stop offset="1" stop-color="white"/>
</linearGradient>
<radialGradient id="paint3_radial_453_747" cx="0" cy="0" r="1" gradientUnits="userSpaceOnUse" gradientTransform="translate(266.588 648.079) rotate(90) scale(36.7521 38.9727)">
<stop stop-color="#FCD535"/>
<stop offset="1" stop-color="white" stop-opacity="0"/>
</radialGradient>
<linearGradient id="paint4_linear_453_747" x1="1025.41" y1="227.674" x2="1025.41" y2="305.502" gradientUnits="userSpaceOnUse">
<stop stop-color="white" stop-opacity="0"/>
<stop offset="1" stop-color="white"/>
</linearGradient>
<radialGradient id="paint5_radial_453_747" cx="0" cy="0" r="1" gradientUnits="userSpaceOnUse" gradientTransform="translate(1025.41 268.667) rotate(90) scale(36.7521 38.9727)">
<stop stop-color="#FCD535"/>
<stop offset="1" stop-color="white" stop-opacity="0"/>
</radialGradient>
<radialGradient id="paint6_radial_453_747" cx="0" cy="0" r="1" gradientUnits="userSpaceOnUse" gradientTransform="translate(646 480.615) rotate(90) scale(430 645.973)">
<stop stop-color="#FCD535"/>
<stop offset="1" stop-color="white" stop-opacity="0"/>
</radialGradient>
</defs>
</svg>
